<?xml version="1.0" encoding="UTF-8"?>
<svg width="431px" height="423px" viewBox="0 0 431 423" version="1.1" xmlns="http://www.w3.org/2000/svg" xmlns:xlink="http://www.w3.org/1999/xlink">
    <!-- Generator: Sketch 60 (88103) - https://sketch.com -->
    <title>Group 2</title>
    <desc>Created with Sketch.</desc>
    <defs>
        <linearGradient x1="75.6237785%" y1="90.1192182%" x2="40.9749186%" y2="35.8693811%" id="linearGradient-1">
            <stop stop-color="#F89F20" offset="0%"></stop>
            <stop stop-color="#F79A20" offset="25.02%"></stop>
            <stop stop-color="#F68D20" offset="53.31%"></stop>
            <stop stop-color="#F58720" offset="61.96%"></stop>
            <stop stop-color="#F48120" offset="72.32%"></stop>
            <stop stop-color="#F37521" offset="100%"></stop>
        </linearGradient>
        <linearGradient x1="70.1473941%" y1="89.3791531%" x2="19.5068404%" y2="-9.60032573%" id="linearGradient-2">
            <stop stop-color="#F58720" offset="0%"></stop>
            <stop stop-color="#E16F27" offset="35.87%"></stop>
            <stop stop-color="#D4602C" offset="70.3%"></stop>
            <stop stop-color="#D05B2E" offset="98.16%"></stop>
        </linearGradient>
    </defs>
    <g id="Website" stroke="none" stroke-width="1" fill="none" fill-rule="evenodd">
        <g id="Home-v3" transform="translate(-783.000000, -2337.000000)">
            <g id="Group-2" transform="translate(783.000000, 2337.000000)">
                <circle id="Oval" fill="#D4EBFF" cx="215.5" cy="208.5" r="144.5"></circle>
                <g id="dots" transform="translate(215.000000, 0.000000)" fill="#D0CFD4">
                    <path d="M99.042,2.085 L100.234,2.085 L100.234,5.68434189e-14 L99.042,5.68434189e-14 L99.042,2.085 Z M99.042,11.618 L100.234,11.618 L100.234,9.533 L99.042,9.533 L99.042,11.618 Z M99.042,21.152 L100.234,21.152 L100.234,19.067 L99.042,19.067 L99.042,21.152 Z M99.042,30.686 L100.234,30.686 L100.234,28.6 L99.042,28.6 L99.042,30.686 Z M99.042,40.219 L100.234,40.219 L100.234,38.133 L99.042,38.133 L99.042,40.219 Z M99.042,49.753 L100.234,49.753 L100.234,47.667 L99.042,47.667 L99.042,49.753 Z M99.042,59.286 L100.234,59.286 L100.234,57.2 L99.042,57.2 L99.042,59.286 Z M99.042,68.819 L100.234,68.819 L100.234,66.734 L99.042,66.734 L99.042,68.819 Z M99.042,78.353 L100.234,78.353 L100.234,76.268 L99.042,76.268 L99.042,78.353 Z M99.042,87.886 L100.234,87.886 L100.234,85.801 L99.042,85.801 L99.042,87.886 Z M99.042,97.42 L100.234,97.42 L100.234,95.335 L99.042,95.335 L99.042,97.42 Z M99.042,106.954 L100.234,106.954 L100.234,104.868 L99.042,104.868 L99.042,106.954 Z M99.042,116.487 L100.234,116.487 L100.234,114.402 L99.042,114.402 L99.042,116.487 Z M99.042,126.021 L100.234,126.021 L100.234,123.935 L99.042,123.935 L99.042,126.021 Z M99.042,135.554 L100.234,135.554 L100.234,133.468 L99.042,133.468 L99.042,135.554 Z M99.042,145.088 L100.234,145.088 L100.234,143.002 L99.042,143.002 L99.042,145.088 Z M99.042,154.621 L100.234,154.621 L100.234,152.536 L99.042,152.536 L99.042,154.621 Z M99.042,164.154 L100.234,164.154 L100.234,162.069 L99.042,162.069 L99.042,164.154 Z M99.042,173.688 L100.234,173.688 L100.234,171.603 L99.042,171.603 L99.042,173.688 Z" id="Fill-132"></path>
                    <path d="M111.454,2.085 L112.645,2.085 L112.645,5.68434189e-14 L111.454,5.68434189e-14 L111.454,2.085 Z M111.454,11.618 L112.645,11.618 L112.645,9.533 L111.454,9.533 L111.454,11.618 Z M111.454,21.152 L112.645,21.152 L112.645,19.067 L111.454,19.067 L111.454,21.152 Z M111.454,30.686 L112.645,30.686 L112.645,28.6 L111.454,28.6 L111.454,30.686 Z M111.454,40.219 L112.645,40.219 L112.645,38.133 L111.454,38.133 L111.454,40.219 Z M111.454,49.753 L112.645,49.753 L112.645,47.667 L111.454,47.667 L111.454,49.753 Z M111.454,59.286 L112.645,59.286 L112.645,57.2 L111.454,57.2 L111.454,59.286 Z M111.454,68.819 L112.645,68.819 L112.645,66.734 L111.454,66.734 L111.454,68.819 Z M111.454,78.353 L112.645,78.353 L112.645,76.268 L111.454,76.268 L111.454,78.353 Z M111.454,87.886 L112.645,87.886 L112.645,85.801 L111.454,85.801 L111.454,87.886 Z M111.454,97.42 L112.645,97.42 L112.645,95.335 L111.454,95.335 L111.454,97.42 Z M111.454,106.954 L112.645,106.954 L112.645,104.868 L111.454,104.868 L111.454,106.954 Z M111.454,116.487 L112.645,116.487 L112.645,114.402 L111.454,114.402 L111.454,116.487 Z M111.454,126.021 L112.645,126.021 L112.645,123.935 L111.454,123.935 L111.454,126.021 Z M111.454,135.554 L112.645,135.554 L112.645,133.468 L111.454,133.468 L111.454,135.554 Z M111.454,145.088 L112.645,145.088 L112.645,143.002 L111.454,143.002 L111.454,145.088 Z M111.454,154.621 L112.645,154.621 L112.645,152.536 L111.454,152.536 L111.454,154.621 Z M111.454,164.154 L112.645,164.154 L112.645,162.069 L111.454,162.069 L111.454,164.154 Z M111.454,173.688 L112.645,173.688 L112.645,171.603 L111.454,171.603 L111.454,173.688 Z" id="Fill-133"></path>
                    <path d="M123.866,2.085 L125.058,2.085 L125.058,5.68434189e-14 L123.866,5.68434189e-14 L123.866,2.085 Z M123.866,11.618 L125.058,11.618 L125.058,9.533 L123.866,9.533 L123.866,11.618 Z M123.866,21.152 L125.058,21.152 L125.058,19.067 L123.866,19.067 L123.866,21.152 Z M123.866,30.686 L125.058,30.686 L125.058,28.6 L123.866,28.6 L123.866,30.686 Z M123.866,40.219 L125.058,40.219 L125.058,38.133 L123.866,38.133 L123.866,40.219 Z M123.866,49.753 L125.058,49.753 L125.058,47.667 L123.866,47.667 L123.866,49.753 Z M123.866,59.286 L125.058,59.286 L125.058,57.2 L123.866,57.2 L123.866,59.286 Z M123.866,68.819 L125.058,68.819 L125.058,66.734 L123.866,66.734 L123.866,68.819 Z M123.866,78.353 L125.058,78.353 L125.058,76.268 L123.866,76.268 L123.866,78.353 Z M123.866,87.886 L125.058,87.886 L125.058,85.801 L123.866,85.801 L123.866,87.886 Z M123.866,97.42 L125.058,97.42 L125.058,95.335 L123.866,95.335 L123.866,97.42 Z M123.866,106.954 L125.058,106.954 L125.058,104.868 L123.866,104.868 L123.866,106.954 Z M123.866,116.487 L125.058,116.487 L125.058,114.402 L123.866,114.402 L123.866,116.487 Z M123.866,126.021 L125.058,126.021 L125.058,123.935 L123.866,123.935 L123.866,126.021 Z M123.866,135.554 L125.058,135.554 L125.058,133.468 L123.866,133.468 L123.866,135.554 Z M123.866,145.088 L125.058,145.088 L125.058,143.002 L123.866,143.002 L123.866,145.088 Z M123.866,154.621 L125.058,154.621 L125.058,152.536 L123.866,152.536 L123.866,154.621 Z M123.866,164.154 L125.058,164.154 L125.058,162.069 L123.866,162.069 L123.866,164.154 Z M123.866,173.688 L125.058,173.688 L125.058,171.603 L123.866,171.603 L123.866,173.688 Z" id="Fill-134"></path>
                    <path d="M136.278,2.085 L137.469,2.085 L137.469,5.68434189e-14 L136.278,5.68434189e-14 L136.278,2.085 Z M136.278,11.618 L137.469,11.618 L137.469,9.533 L136.278,9.533 L136.278,11.618 Z M136.278,21.152 L137.469,21.152 L137.469,19.067 L136.278,19.067 L136.278,21.152 Z M136.278,30.686 L137.469,30.686 L137.469,28.6 L136.278,28.6 L136.278,30.686 Z M136.278,40.219 L137.469,40.219 L137.469,38.133 L136.278,38.133 L136.278,40.219 Z M136.278,49.753 L137.469,49.753 L137.469,47.667 L136.278,47.667 L136.278,49.753 Z M136.278,59.286 L137.469,59.286 L137.469,57.2 L136.278,57.2 L136.278,59.286 Z M136.278,68.819 L137.469,68.819 L137.469,66.734 L136.278,66.734 L136.278,68.819 Z M136.278,78.353 L137.469,78.353 L137.469,76.268 L136.278,76.268 L136.278,78.353 Z M136.278,87.886 L137.469,87.886 L137.469,85.801 L136.278,85.801 L136.278,87.886 Z M136.278,97.42 L137.469,97.42 L137.469,95.335 L136.278,95.335 L136.278,97.42 Z M136.278,106.954 L137.469,106.954 L137.469,104.868 L136.278,104.868 L136.278,106.954 Z M136.278,116.487 L137.469,116.487 L137.469,114.402 L136.278,114.402 L136.278,116.487 Z M136.278,126.021 L137.469,126.021 L137.469,123.935 L136.278,123.935 L136.278,126.021 Z M136.278,135.554 L137.469,135.554 L137.469,133.468 L136.278,133.468 L136.278,135.554 Z M136.278,145.088 L137.469,145.088 L137.469,143.002 L136.278,143.002 L136.278,145.088 Z M136.278,154.621 L137.469,154.621 L137.469,152.536 L136.278,152.536 L136.278,154.621 Z M136.278,164.154 L137.469,164.154 L137.469,162.069 L136.278,162.069 L136.278,164.154 Z M136.278,173.688 L137.469,173.688 L137.469,171.603 L136.278,171.603 L136.278,173.688 Z" id="Fill-135"></path>
                    <path d="M148.69,2.085 L149.881,2.085 L149.881,5.68434189e-14 L148.69,5.68434189e-14 L148.69,2.085 Z M148.69,11.618 L149.881,11.618 L149.881,9.533 L148.69,9.533 L148.69,11.618 Z M148.69,21.152 L149.881,21.152 L149.881,19.067 L148.69,19.067 L148.69,21.152 Z M148.69,30.686 L149.881,30.686 L149.881,28.6 L148.69,28.6 L148.69,30.686 Z M148.69,40.219 L149.881,40.219 L149.881,38.133 L148.69,38.133 L148.69,40.219 Z M148.69,49.753 L149.881,49.753 L149.881,47.667 L148.69,47.667 L148.69,49.753 Z M148.69,59.286 L149.881,59.286 L149.881,57.2 L148.69,57.2 L148.69,59.286 Z M148.69,68.819 L149.881,68.819 L149.881,66.734 L148.69,66.734 L148.69,68.819 Z M148.69,78.353 L149.881,78.353 L149.881,76.268 L148.69,76.268 L148.69,78.353 Z M148.69,87.886 L149.881,87.886 L149.881,85.801 L148.69,85.801 L148.69,87.886 Z M148.69,97.42 L149.881,97.42 L149.881,95.335 L148.69,95.335 L148.69,97.42 Z M148.69,106.954 L149.881,106.954 L149.881,104.868 L148.69,104.868 L148.69,106.954 Z M148.69,116.487 L149.881,116.487 L149.881,114.402 L148.69,114.402 L148.69,116.487 Z M148.69,126.021 L149.881,126.021 L149.881,123.935 L148.69,123.935 L148.69,126.021 Z M148.69,135.554 L149.881,135.554 L149.881,133.468 L148.69,133.468 L148.69,135.554 Z M148.69,145.088 L149.881,145.088 L149.881,143.002 L148.69,143.002 L148.69,145.088 Z M148.69,154.621 L149.881,154.621 L149.881,152.536 L148.69,152.536 L148.69,154.621 Z M148.69,164.154 L149.881,164.154 L149.881,162.069 L148.69,162.069 L148.69,164.154 Z M148.69,173.688 L149.881,173.688 L149.881,171.603 L148.69,171.603 L148.69,173.688 Z" id="Fill-136"></path>
                    <path d="M161.102,2.085 L162.293,2.085 L162.293,5.68434189e-14 L161.102,5.68434189e-14 L161.102,2.085 Z M161.102,11.618 L162.293,11.618 L162.293,9.533 L161.102,9.533 L161.102,11.618 Z M161.102,21.152 L162.293,21.152 L162.293,19.067 L161.102,19.067 L161.102,21.152 Z M161.102,30.686 L162.293,30.686 L162.293,28.6 L161.102,28.6 L161.102,30.686 Z M161.102,40.219 L162.293,40.219 L162.293,38.133 L161.102,38.133 L161.102,40.219 Z M161.102,49.753 L162.293,49.753 L162.293,47.667 L161.102,47.667 L161.102,49.753 Z M161.102,59.286 L162.293,59.286 L162.293,57.2 L161.102,57.2 L161.102,59.286 Z M161.102,68.819 L162.293,68.819 L162.293,66.734 L161.102,66.734 L161.102,68.819 Z M161.102,78.353 L162.293,78.353 L162.293,76.268 L161.102,76.268 L161.102,78.353 Z M161.102,87.886 L162.293,87.886 L162.293,85.801 L161.102,85.801 L161.102,87.886 Z M161.102,97.42 L162.293,97.42 L162.293,95.335 L161.102,95.335 L161.102,97.42 Z M161.102,106.954 L162.293,106.954 L162.293,104.868 L161.102,104.868 L161.102,106.954 Z M161.102,116.487 L162.293,116.487 L162.293,114.402 L161.102,114.402 L161.102,116.487 Z M161.102,126.021 L162.293,126.021 L162.293,123.935 L161.102,123.935 L161.102,126.021 Z M161.102,135.554 L162.293,135.554 L162.293,133.468 L161.102,133.468 L161.102,135.554 Z M161.102,145.088 L162.293,145.088 L162.293,143.002 L161.102,143.002 L161.102,145.088 Z M161.102,154.621 L162.293,154.621 L162.293,152.536 L161.102,152.536 L161.102,154.621 Z M161.102,164.154 L162.293,164.154 L162.293,162.069 L161.102,162.069 L161.102,164.154 Z M161.102,173.688 L162.293,173.688 L162.293,171.603 L161.102,171.603 L161.102,173.688 Z" id="Fill-137"></path>
                    <path d="M86.63,2.085 L87.822,2.085 L87.822,5.68434189e-14 L86.63,5.68434189e-14 L86.63,2.085 Z M86.63,11.618 L87.822,11.618 L87.822,9.533 L86.63,9.533 L86.63,11.618 Z M86.63,21.152 L87.822,21.152 L87.822,19.067 L86.63,19.067 L86.63,21.152 Z M86.63,30.686 L87.822,30.686 L87.822,28.6 L86.63,28.6 L86.63,30.686 Z M86.63,40.219 L87.822,40.219 L87.822,38.133 L86.63,38.133 L86.63,40.219 Z M86.63,49.753 L87.822,49.753 L87.822,47.667 L86.63,47.667 L86.63,49.753 Z M86.63,59.286 L87.822,59.286 L87.822,57.2 L86.63,57.2 L86.63,59.286 Z M86.63,68.819 L87.822,68.819 L87.822,66.734 L86.63,66.734 L86.63,68.819 Z M86.63,78.353 L87.822,78.353 L87.822,76.268 L86.63,76.268 L86.63,78.353 Z M86.63,87.886 L87.822,87.886 L87.822,85.801 L86.63,85.801 L86.63,87.886 Z M86.63,97.42 L87.822,97.42 L87.822,95.335 L86.63,95.335 L86.63,97.42 Z M86.63,106.954 L87.822,106.954 L87.822,104.868 L86.63,104.868 L86.63,106.954 Z M86.63,116.487 L87.822,116.487 L87.822,114.402 L86.63,114.402 L86.63,116.487 Z M86.63,126.021 L87.822,126.021 L87.822,123.935 L86.63,123.935 L86.63,126.021 Z M86.63,135.554 L87.822,135.554 L87.822,133.468 L86.63,133.468 L86.63,135.554 Z M86.63,145.088 L87.822,145.088 L87.822,143.002 L86.63,143.002 L86.63,145.088 Z M86.63,154.621 L87.822,154.621 L87.822,152.536 L86.63,152.536 L86.63,154.621 Z M86.63,164.154 L87.822,164.154 L87.822,162.069 L86.63,162.069 L86.63,164.154 Z M86.63,173.688 L87.822,173.688 L87.822,171.603 L86.63,171.603 L86.63,173.688 Z" id="Fill-138"></path>
                    <path d="M74.218,2.085 L75.41,2.085 L75.41,5.68434189e-14 L74.218,5.68434189e-14 L74.218,2.085 Z M74.218,11.618 L75.41,11.618 L75.41,9.533 L74.218,9.533 L74.218,11.618 Z M74.218,21.152 L75.41,21.152 L75.41,19.067 L74.218,19.067 L74.218,21.152 Z M74.218,30.686 L75.41,30.686 L75.41,28.6 L74.218,28.6 L74.218,30.686 Z M74.218,40.219 L75.41,40.219 L75.41,38.133 L74.218,38.133 L74.218,40.219 Z M74.218,49.753 L75.41,49.753 L75.41,47.667 L74.218,47.667 L74.218,49.753 Z M74.218,59.286 L75.41,59.286 L75.41,57.2 L74.218,57.2 L74.218,59.286 Z M74.218,68.819 L75.41,68.819 L75.41,66.734 L74.218,66.734 L74.218,68.819 Z M74.218,78.353 L75.41,78.353 L75.41,76.268 L74.218,76.268 L74.218,78.353 Z M74.218,87.886 L75.41,87.886 L75.41,85.801 L74.218,85.801 L74.218,87.886 Z M74.218,97.42 L75.41,97.42 L75.41,95.335 L74.218,95.335 L74.218,97.42 Z M74.218,106.954 L75.41,106.954 L75.41,104.868 L74.218,104.868 L74.218,106.954 Z M74.218,116.487 L75.41,116.487 L75.41,114.402 L74.218,114.402 L74.218,116.487 Z M74.218,126.021 L75.41,126.021 L75.41,123.935 L74.218,123.935 L74.218,126.021 Z M74.218,135.554 L75.41,135.554 L75.41,133.468 L74.218,133.468 L74.218,135.554 Z M74.218,145.088 L75.41,145.088 L75.41,143.002 L74.218,143.002 L74.218,145.088 Z M74.218,154.621 L75.41,154.621 L75.41,152.536 L74.218,152.536 L74.218,154.621 Z M74.218,164.154 L75.41,164.154 L75.41,162.069 L74.218,162.069 L74.218,164.154 Z M74.218,173.688 L75.41,173.688 L75.41,171.603 L74.218,171.603 L74.218,173.688 Z" id="Fill-139"></path>
                    <path d="M61.806,2.085 L62.998,2.085 L62.998,5.68434189e-14 L61.806,5.68434189e-14 L61.806,2.085 Z M61.806,11.618 L62.998,11.618 L62.998,9.533 L61.806,9.533 L61.806,11.618 Z M61.806,21.152 L62.998,21.152 L62.998,19.067 L61.806,19.067 L61.806,21.152 Z M61.806,30.686 L62.998,30.686 L62.998,28.6 L61.806,28.6 L61.806,30.686 Z M61.806,40.219 L62.998,40.219 L62.998,38.133 L61.806,38.133 L61.806,40.219 Z M61.806,49.753 L62.998,49.753 L62.998,47.667 L61.806,47.667 L61.806,49.753 Z M61.806,59.286 L62.998,59.286 L62.998,57.2 L61.806,57.2 L61.806,59.286 Z M61.806,68.819 L62.998,68.819 L62.998,66.734 L61.806,66.734 L61.806,68.819 Z M61.806,78.353 L62.998,78.353 L62.998,76.268 L61.806,76.268 L61.806,78.353 Z M61.806,87.886 L62.998,87.886 L62.998,85.801 L61.806,85.801 L61.806,87.886 Z M61.806,97.42 L62.998,97.42 L62.998,95.335 L61.806,95.335 L61.806,97.42 Z M61.806,106.954 L62.998,106.954 L62.998,104.868 L61.806,104.868 L61.806,106.954 Z M61.806,116.487 L62.998,116.487 L62.998,114.402 L61.806,114.402 L61.806,116.487 Z M61.806,126.021 L62.998,126.021 L62.998,123.935 L61.806,123.935 L61.806,126.021 Z M61.806,135.554 L62.998,135.554 L62.998,133.468 L61.806,133.468 L61.806,135.554 Z M61.806,145.088 L62.998,145.088 L62.998,143.002 L61.806,143.002 L61.806,145.088 Z M61.806,154.621 L62.998,154.621 L62.998,152.536 L61.806,152.536 L61.806,154.621 Z M61.806,164.154 L62.998,164.154 L62.998,162.069 L61.806,162.069 L61.806,164.154 Z M61.806,173.688 L62.998,173.688 L62.998,171.603 L61.806,171.603 L61.806,173.688 Z" id="Fill-140"></path>
                    <path d="M49.394,2.085 L50.586,2.085 L50.586,5.68434189e-14 L49.394,5.68434189e-14 L49.394,2.085 Z M49.394,11.618 L50.586,11.618 L50.586,9.533 L49.394,9.533 L49.394,11.618 Z M49.394,21.152 L50.586,21.152 L50.586,19.067 L49.394,19.067 L49.394,21.152 Z M49.394,30.686 L50.586,30.686 L50.586,28.6 L49.394,28.6 L49.394,30.686 Z M49.394,40.219 L50.586,40.219 L50.586,38.133 L49.394,38.133 L49.394,40.219 Z M49.394,49.753 L50.586,49.753 L50.586,47.667 L49.394,47.667 L49.394,49.753 Z M49.394,59.286 L50.586,59.286 L50.586,57.2 L49.394,57.2 L49.394,59.286 Z M49.394,68.819 L50.586,68.819 L50.586,66.734 L49.394,66.734 L49.394,68.819 Z M49.394,78.353 L50.586,78.353 L50.586,76.268 L49.394,76.268 L49.394,78.353 Z M49.394,87.886 L50.586,87.886 L50.586,85.801 L49.394,85.801 L49.394,87.886 Z M49.394,97.42 L50.586,97.42 L50.586,95.335 L49.394,95.335 L49.394,97.42 Z M49.394,106.954 L50.586,106.954 L50.586,104.868 L49.394,104.868 L49.394,106.954 Z M49.394,116.487 L50.586,116.487 L50.586,114.402 L49.394,114.402 L49.394,116.487 Z M49.394,126.021 L50.586,126.021 L50.586,123.935 L49.394,123.935 L49.394,126.021 Z M49.394,135.554 L50.586,135.554 L50.586,133.468 L49.394,133.468 L49.394,135.554 Z M49.394,145.088 L50.586,145.088 L50.586,143.002 L49.394,143.002 L49.394,145.088 Z M49.394,154.621 L50.586,154.621 L50.586,152.536 L49.394,152.536 L49.394,154.621 Z M49.394,164.154 L50.586,164.154 L50.586,162.069 L49.394,162.069 L49.394,164.154 Z M49.394,173.688 L50.586,173.688 L50.586,171.603 L49.394,171.603 L49.394,173.688 Z" id="Fill-141"></path>
                    <path d="M36.982,2.085 L38.174,2.085 L38.174,5.68434189e-14 L36.982,5.68434189e-14 L36.982,2.085 Z M36.982,11.618 L38.174,11.618 L38.174,9.533 L36.982,9.533 L36.982,11.618 Z M36.982,21.152 L38.174,21.152 L38.174,19.067 L36.982,19.067 L36.982,21.152 Z M36.982,30.686 L38.174,30.686 L38.174,28.6 L36.982,28.6 L36.982,30.686 Z M36.982,40.219 L38.174,40.219 L38.174,38.133 L36.982,38.133 L36.982,40.219 Z M36.982,49.753 L38.174,49.753 L38.174,47.667 L36.982,47.667 L36.982,49.753 Z M36.982,59.286 L38.174,59.286 L38.174,57.2 L36.982,57.2 L36.982,59.286 Z M36.982,68.819 L38.174,68.819 L38.174,66.734 L36.982,66.734 L36.982,68.819 Z M36.982,78.353 L38.174,78.353 L38.174,76.268 L36.982,76.268 L36.982,78.353 Z M36.982,87.886 L38.174,87.886 L38.174,85.801 L36.982,85.801 L36.982,87.886 Z M36.982,97.42 L38.174,97.42 L38.174,95.335 L36.982,95.335 L36.982,97.42 Z M36.982,106.954 L38.174,106.954 L38.174,104.868 L36.982,104.868 L36.982,106.954 Z M36.982,116.487 L38.174,116.487 L38.174,114.402 L36.982,114.402 L36.982,116.487 Z M36.982,126.021 L38.174,126.021 L38.174,123.935 L36.982,123.935 L36.982,126.021 Z M36.982,135.554 L38.174,135.554 L38.174,133.468 L36.982,133.468 L36.982,135.554 Z M36.982,145.088 L38.174,145.088 L38.174,143.002 L36.982,143.002 L36.982,145.088 Z M36.982,154.621 L38.174,154.621 L38.174,152.536 L36.982,152.536 L36.982,154.621 Z M36.982,164.154 L38.174,164.154 L38.174,162.069 L36.982,162.069 L36.982,164.154 Z M36.982,173.688 L38.174,173.688 L38.174,171.603 L36.982,171.603 L36.982,173.688 Z" id="Fill-142"></path>
                    <path d="M24.57,2.085 L25.762,2.085 L25.762,5.68434189e-14 L24.57,5.68434189e-14 L24.57,2.085 Z M24.57,11.618 L25.762,11.618 L25.762,9.533 L24.57,9.533 L24.57,11.618 Z M24.57,21.152 L25.762,21.152 L25.762,19.067 L24.57,19.067 L24.57,21.152 Z M24.57,30.686 L25.762,30.686 L25.762,28.6 L24.57,28.6 L24.57,30.686 Z M24.57,40.219 L25.762,40.219 L25.762,38.133 L24.57,38.133 L24.57,40.219 Z M24.57,49.753 L25.762,49.753 L25.762,47.667 L24.57,47.667 L24.57,49.753 Z M24.57,59.286 L25.762,59.286 L25.762,57.2 L24.57,57.2 L24.57,59.286 Z M24.57,68.819 L25.762,68.819 L25.762,66.734 L24.57,66.734 L24.57,68.819 Z M24.57,78.353 L25.762,78.353 L25.762,76.268 L24.57,76.268 L24.57,78.353 Z M24.57,87.886 L25.762,87.886 L25.762,85.801 L24.57,85.801 L24.57,87.886 Z M24.57,97.42 L25.762,97.42 L25.762,95.335 L24.57,95.335 L24.57,97.42 Z M24.57,106.954 L25.762,106.954 L25.762,104.868 L24.57,104.868 L24.57,106.954 Z M24.57,116.487 L25.762,116.487 L25.762,114.402 L24.57,114.402 L24.57,116.487 Z M24.57,126.021 L25.762,126.021 L25.762,123.935 L24.57,123.935 L24.57,126.021 Z M24.57,135.554 L25.762,135.554 L25.762,133.468 L24.57,133.468 L24.57,135.554 Z M24.57,145.088 L25.762,145.088 L25.762,143.002 L24.57,143.002 L24.57,145.088 Z M24.57,154.621 L25.762,154.621 L25.762,152.536 L24.57,152.536 L24.57,154.621 Z M24.57,164.154 L25.762,164.154 L25.762,162.069 L24.57,162.069 L24.57,164.154 Z M24.57,173.688 L25.762,173.688 L25.762,171.603 L24.57,171.603 L24.57,173.688 Z" id="Fill-143"></path>
                    <path d="M12.159,2.085 L13.35,2.085 L13.35,5.68434189e-14 L12.159,5.68434189e-14 L12.159,2.085 Z M12.159,11.618 L13.35,11.618 L13.35,9.533 L12.159,9.533 L12.159,11.618 Z M12.159,21.152 L13.35,21.152 L13.35,19.067 L12.159,19.067 L12.159,21.152 Z M12.159,30.686 L13.35,30.686 L13.35,28.6 L12.159,28.6 L12.159,30.686 Z M12.159,40.219 L13.35,40.219 L13.35,38.133 L12.159,38.133 L12.159,40.219 Z M12.159,49.753 L13.35,49.753 L13.35,47.667 L12.159,47.667 L12.159,49.753 Z M12.159,59.286 L13.35,59.286 L13.35,57.2 L12.159,57.2 L12.159,59.286 Z M12.159,68.819 L13.35,68.819 L13.35,66.734 L12.159,66.734 L12.159,68.819 Z M12.159,78.353 L13.35,78.353 L13.35,76.268 L12.159,76.268 L12.159,78.353 Z M12.159,87.886 L13.35,87.886 L13.35,85.801 L12.159,85.801 L12.159,87.886 Z M12.159,97.42 L13.35,97.42 L13.35,95.335 L12.159,95.335 L12.159,97.42 Z M12.159,106.954 L13.35,106.954 L13.35,104.868 L12.159,104.868 L12.159,106.954 Z M12.159,116.487 L13.35,116.487 L13.35,114.402 L12.159,114.402 L12.159,116.487 Z M12.159,126.021 L13.35,126.021 L13.35,123.935 L12.159,123.935 L12.159,126.021 Z M12.159,135.554 L13.35,135.554 L13.35,133.468 L12.159,133.468 L12.159,135.554 Z M12.159,145.088 L13.35,145.088 L13.35,143.002 L12.159,143.002 L12.159,145.088 Z M12.159,154.621 L13.35,154.621 L13.35,152.536 L12.159,152.536 L12.159,154.621 Z M12.159,164.154 L13.35,164.154 L13.35,162.069 L12.159,162.069 L12.159,164.154 Z M12.159,173.688 L13.35,173.688 L13.35,171.603 L12.159,171.603 L12.159,173.688 Z" id="Fill-144"></path>
                    <path d="M0,2.085 L1.192,2.085 L1.192,5.68434189e-14 L0,5.68434189e-14 L0,2.085 Z M0,11.618 L1.192,11.618 L1.192,9.533 L0,9.533 L0,11.618 Z M0,21.152 L1.192,21.152 L1.192,19.067 L0,19.067 L0,21.152 Z M0,30.686 L1.192,30.686 L1.192,28.6 L0,28.6 L0,30.686 Z M0,40.219 L1.192,40.219 L1.192,38.133 L0,38.133 L0,40.219 Z M0,49.753 L1.192,49.753 L1.192,47.667 L0,47.667 L0,49.753 Z M0,59.286 L1.192,59.286 L1.192,57.2 L0,57.2 L0,59.286 Z M0,68.819 L1.192,68.819 L1.192,66.734 L0,66.734 L0,68.819 Z M0,78.353 L1.192,78.353 L1.192,76.268 L0,76.268 L0,78.353 Z M0,87.886 L1.192,87.886 L1.192,85.801 L0,85.801 L0,87.886 Z M0,97.42 L1.192,97.42 L1.192,95.335 L0,95.335 L0,97.42 Z M0,106.954 L1.192,106.954 L1.192,104.868 L0,104.868 L0,106.954 Z M0,116.487 L1.192,116.487 L1.192,114.402 L0,114.402 L0,116.487 Z M0,126.021 L1.192,126.021 L1.192,123.935 L0,123.935 L0,126.021 Z M0,135.554 L1.192,135.554 L1.192,133.468 L0,133.468 L0,135.554 Z M0,145.088 L1.192,145.088 L1.192,143.002 L0,143.002 L0,145.088 Z M0,154.621 L1.192,154.621 L1.192,152.536 L0,152.536 L0,154.621 Z M0,164.154 L1.192,164.154 L1.192,162.069 L0,162.069 L0,164.154 Z M0,173.688 L1.192,173.688 L1.192,171.603 L0,171.603 L0,173.688 Z" id="Fill-145"></path>
                </g>
                <g id="Group-3" transform="translate(238.000000, 121.000000)">
                    <path d="M184.474671,105.796117 L37.5199811,105.370086 C33.354036,105.35866 29.9875411,101.971243 30,97.8062259 L30.2626239,7.51997578 C30.2741198,3.35502826 33.6615366,-0.0114665963 37.8264841,2.27373675e-13 L184.781314,0.428021196 C188.947329,0.440444955 192.313684,3.82586659 192.301225,7.99088387 L192.038601,98.2771339 C192.027105,102.442081 188.639689,105.808576 184.474671,105.796117 Z" id="Fill-41" fill="#F5A622"></path>
                    <polyline id="Fill-59" fill="#FFFFFE" transform="translate(147.081511, 85.338163) rotate(-4.000000) translate(-147.081511, -85.338163) " points="111.293511 80.7726633 111.010511 84.6686633 182.869511 89.9036633 183.152511 86.0086633 111.293511 80.7726633"></polyline>
                    <polyline id="Fill-60" fill="#FFFFFE" transform="translate(164.608330, 93.188678) rotate(-4.000000) translate(-164.608330, -93.188678) " points="146.32183 89.8981777 146.03783 93.7941777 182.89383 96.4791777 183.17883 92.5831777 146.32183 89.8981777"></polyline>
                    <path d="M63.8062402,49.7764837 C63.6852402,49.7764837 63.5632402,49.7714837 63.4402402,49.7624837 L57.3202402,49.3164837 L57.4162402,26.6794837 L65.0812402,27.2384837 C67.8152402,27.4374837 69.8692402,29.8154837 69.6702402,32.5484837 L68.7522402,45.1714837 C68.5632402,47.7834837 66.3842402,49.7764837 63.8062402,49.7764837" id="Fill-61" fill="#6D232C" transform="translate(63.501901, 38.227984) rotate(-4.000000) translate(-63.501901, -38.227984) "></path>
                    <path d="M38.6806308,42.7061607 L38.7876308,41.2611607 L54.3116308,42.3931607 C56.1016308,42.5211607 57.6666308,41.1711607 57.7986308,39.3781607 C57.9286308,37.5871607 56.5566308,36.0021607 54.7856308,35.8941607 L39.2606308,34.7621607 L39.3666308,33.3171607 L54.8896308,34.4491607 C57.4776308,34.6381607 59.4306308,36.8951607 59.2436308,39.4831607 C59.0546308,42.0721607 56.7946308,44.0251607 54.2066308,43.8371607 L38.6806308,42.7061607" id="Fill-62" fill="#FF6855" transform="translate(48.968323, 38.583416) rotate(-4.000000) translate(-48.968323, -38.583416) "></path>
                    <polyline id="Fill-63" fill="#FF6855" transform="translate(63.898654, 38.779150) rotate(-4.000000) translate(-63.898654, -38.779150) " points="58.5176541 39.1131502 58.6236541 37.6681502 69.2796541 38.4441502 69.1736541 39.8901502 58.5176541 39.1131502"></polyline>
                    <polygon id="Fill-64" fill="#FFFFFE" points="120.396141 15.4101591 42.647768 15.1810533 42.6663596 8.50850242 120.41573 8.73753843"></polygon>
                    <text id="124-456-367-789-123" font-family="DMSans-Regular, DM Sans" font-size="14" font-weight="normal" letter-spacing="3" fill="#FFFFFF">
                        <tspan x="0" y="76">124 456 367 789 123</tspan>
                    </text>
                </g>
                <g id="dots" transform="translate(25.000000, 249.000000)" fill="#D0CFD4">
                    <path d="M99.042,2.085 L100.234,2.085 L100.234,5.68434189e-14 L99.042,5.68434189e-14 L99.042,2.085 Z M99.042,11.618 L100.234,11.618 L100.234,9.533 L99.042,9.533 L99.042,11.618 Z M99.042,21.152 L100.234,21.152 L100.234,19.067 L99.042,19.067 L99.042,21.152 Z M99.042,30.686 L100.234,30.686 L100.234,28.6 L99.042,28.6 L99.042,30.686 Z M99.042,40.219 L100.234,40.219 L100.234,38.133 L99.042,38.133 L99.042,40.219 Z M99.042,49.753 L100.234,49.753 L100.234,47.667 L99.042,47.667 L99.042,49.753 Z M99.042,59.286 L100.234,59.286 L100.234,57.2 L99.042,57.2 L99.042,59.286 Z M99.042,68.819 L100.234,68.819 L100.234,66.734 L99.042,66.734 L99.042,68.819 Z M99.042,78.353 L100.234,78.353 L100.234,76.268 L99.042,76.268 L99.042,78.353 Z M99.042,87.886 L100.234,87.886 L100.234,85.801 L99.042,85.801 L99.042,87.886 Z M99.042,97.42 L100.234,97.42 L100.234,95.335 L99.042,95.335 L99.042,97.42 Z M99.042,106.954 L100.234,106.954 L100.234,104.868 L99.042,104.868 L99.042,106.954 Z M99.042,116.487 L100.234,116.487 L100.234,114.402 L99.042,114.402 L99.042,116.487 Z M99.042,126.021 L100.234,126.021 L100.234,123.935 L99.042,123.935 L99.042,126.021 Z M99.042,135.554 L100.234,135.554 L100.234,133.468 L99.042,133.468 L99.042,135.554 Z M99.042,145.088 L100.234,145.088 L100.234,143.002 L99.042,143.002 L99.042,145.088 Z M99.042,154.621 L100.234,154.621 L100.234,152.536 L99.042,152.536 L99.042,154.621 Z M99.042,164.154 L100.234,164.154 L100.234,162.069 L99.042,162.069 L99.042,164.154 Z M99.042,173.688 L100.234,173.688 L100.234,171.603 L99.042,171.603 L99.042,173.688 Z" id="Fill-132"></path>
                    <path d="M111.454,2.085 L112.645,2.085 L112.645,5.68434189e-14 L111.454,5.68434189e-14 L111.454,2.085 Z M111.454,11.618 L112.645,11.618 L112.645,9.533 L111.454,9.533 L111.454,11.618 Z M111.454,21.152 L112.645,21.152 L112.645,19.067 L111.454,19.067 L111.454,21.152 Z M111.454,30.686 L112.645,30.686 L112.645,28.6 L111.454,28.6 L111.454,30.686 Z M111.454,40.219 L112.645,40.219 L112.645,38.133 L111.454,38.133 L111.454,40.219 Z M111.454,49.753 L112.645,49.753 L112.645,47.667 L111.454,47.667 L111.454,49.753 Z M111.454,59.286 L112.645,59.286 L112.645,57.2 L111.454,57.2 L111.454,59.286 Z M111.454,68.819 L112.645,68.819 L112.645,66.734 L111.454,66.734 L111.454,68.819 Z M111.454,78.353 L112.645,78.353 L112.645,76.268 L111.454,76.268 L111.454,78.353 Z M111.454,87.886 L112.645,87.886 L112.645,85.801 L111.454,85.801 L111.454,87.886 Z M111.454,97.42 L112.645,97.42 L112.645,95.335 L111.454,95.335 L111.454,97.42 Z M111.454,106.954 L112.645,106.954 L112.645,104.868 L111.454,104.868 L111.454,106.954 Z M111.454,116.487 L112.645,116.487 L112.645,114.402 L111.454,114.402 L111.454,116.487 Z M111.454,126.021 L112.645,126.021 L112.645,123.935 L111.454,123.935 L111.454,126.021 Z M111.454,135.554 L112.645,135.554 L112.645,133.468 L111.454,133.468 L111.454,135.554 Z M111.454,145.088 L112.645,145.088 L112.645,143.002 L111.454,143.002 L111.454,145.088 Z M111.454,154.621 L112.645,154.621 L112.645,152.536 L111.454,152.536 L111.454,154.621 Z M111.454,164.154 L112.645,164.154 L112.645,162.069 L111.454,162.069 L111.454,164.154 Z M111.454,173.688 L112.645,173.688 L112.645,171.603 L111.454,171.603 L111.454,173.688 Z" id="Fill-133"></path>
                    <path d="M123.866,2.085 L125.058,2.085 L125.058,5.68434189e-14 L123.866,5.68434189e-14 L123.866,2.085 Z M123.866,11.618 L125.058,11.618 L125.058,9.533 L123.866,9.533 L123.866,11.618 Z M123.866,21.152 L125.058,21.152 L125.058,19.067 L123.866,19.067 L123.866,21.152 Z M123.866,30.686 L125.058,30.686 L125.058,28.6 L123.866,28.6 L123.866,30.686 Z M123.866,40.219 L125.058,40.219 L125.058,38.133 L123.866,38.133 L123.866,40.219 Z M123.866,49.753 L125.058,49.753 L125.058,47.667 L123.866,47.667 L123.866,49.753 Z M123.866,59.286 L125.058,59.286 L125.058,57.2 L123.866,57.2 L123.866,59.286 Z M123.866,68.819 L125.058,68.819 L125.058,66.734 L123.866,66.734 L123.866,68.819 Z M123.866,78.353 L125.058,78.353 L125.058,76.268 L123.866,76.268 L123.866,78.353 Z M123.866,87.886 L125.058,87.886 L125.058,85.801 L123.866,85.801 L123.866,87.886 Z M123.866,97.42 L125.058,97.42 L125.058,95.335 L123.866,95.335 L123.866,97.42 Z M123.866,106.954 L125.058,106.954 L125.058,104.868 L123.866,104.868 L123.866,106.954 Z M123.866,116.487 L125.058,116.487 L125.058,114.402 L123.866,114.402 L123.866,116.487 Z M123.866,126.021 L125.058,126.021 L125.058,123.935 L123.866,123.935 L123.866,126.021 Z M123.866,135.554 L125.058,135.554 L125.058,133.468 L123.866,133.468 L123.866,135.554 Z M123.866,145.088 L125.058,145.088 L125.058,143.002 L123.866,143.002 L123.866,145.088 Z M123.866,154.621 L125.058,154.621 L125.058,152.536 L123.866,152.536 L123.866,154.621 Z M123.866,164.154 L125.058,164.154 L125.058,162.069 L123.866,162.069 L123.866,164.154 Z M123.866,173.688 L125.058,173.688 L125.058,171.603 L123.866,171.603 L123.866,173.688 Z" id="Fill-134"></path>
                    <path d="M136.278,2.085 L137.469,2.085 L137.469,5.68434189e-14 L136.278,5.68434189e-14 L136.278,2.085 Z M136.278,11.618 L137.469,11.618 L137.469,9.533 L136.278,9.533 L136.278,11.618 Z M136.278,21.152 L137.469,21.152 L137.469,19.067 L136.278,19.067 L136.278,21.152 Z M136.278,30.686 L137.469,30.686 L137.469,28.6 L136.278,28.6 L136.278,30.686 Z M136.278,40.219 L137.469,40.219 L137.469,38.133 L136.278,38.133 L136.278,40.219 Z M136.278,49.753 L137.469,49.753 L137.469,47.667 L136.278,47.667 L136.278,49.753 Z M136.278,59.286 L137.469,59.286 L137.469,57.2 L136.278,57.2 L136.278,59.286 Z M136.278,68.819 L137.469,68.819 L137.469,66.734 L136.278,66.734 L136.278,68.819 Z M136.278,78.353 L137.469,78.353 L137.469,76.268 L136.278,76.268 L136.278,78.353 Z M136.278,87.886 L137.469,87.886 L137.469,85.801 L136.278,85.801 L136.278,87.886 Z M136.278,97.42 L137.469,97.42 L137.469,95.335 L136.278,95.335 L136.278,97.42 Z M136.278,106.954 L137.469,106.954 L137.469,104.868 L136.278,104.868 L136.278,106.954 Z M136.278,116.487 L137.469,116.487 L137.469,114.402 L136.278,114.402 L136.278,116.487 Z M136.278,126.021 L137.469,126.021 L137.469,123.935 L136.278,123.935 L136.278,126.021 Z M136.278,135.554 L137.469,135.554 L137.469,133.468 L136.278,133.468 L136.278,135.554 Z M136.278,145.088 L137.469,145.088 L137.469,143.002 L136.278,143.002 L136.278,145.088 Z M136.278,154.621 L137.469,154.621 L137.469,152.536 L136.278,152.536 L136.278,154.621 Z M136.278,164.154 L137.469,164.154 L137.469,162.069 L136.278,162.069 L136.278,164.154 Z M136.278,173.688 L137.469,173.688 L137.469,171.603 L136.278,171.603 L136.278,173.688 Z" id="Fill-135"></path>
                    <path d="M148.69,2.085 L149.881,2.085 L149.881,5.68434189e-14 L148.69,5.68434189e-14 L148.69,2.085 Z M148.69,11.618 L149.881,11.618 L149.881,9.533 L148.69,9.533 L148.69,11.618 Z M148.69,21.152 L149.881,21.152 L149.881,19.067 L148.69,19.067 L148.69,21.152 Z M148.69,30.686 L149.881,30.686 L149.881,28.6 L148.69,28.6 L148.69,30.686 Z M148.69,40.219 L149.881,40.219 L149.881,38.133 L148.69,38.133 L148.69,40.219 Z M148.69,49.753 L149.881,49.753 L149.881,47.667 L148.69,47.667 L148.69,49.753 Z M148.69,59.286 L149.881,59.286 L149.881,57.2 L148.69,57.2 L148.69,59.286 Z M148.69,68.819 L149.881,68.819 L149.881,66.734 L148.69,66.734 L148.69,68.819 Z M148.69,78.353 L149.881,78.353 L149.881,76.268 L148.69,76.268 L148.69,78.353 Z M148.69,87.886 L149.881,87.886 L149.881,85.801 L148.69,85.801 L148.69,87.886 Z M148.69,97.42 L149.881,97.42 L149.881,95.335 L148.69,95.335 L148.69,97.42 Z M148.69,106.954 L149.881,106.954 L149.881,104.868 L148.69,104.868 L148.69,106.954 Z M148.69,116.487 L149.881,116.487 L149.881,114.402 L148.69,114.402 L148.69,116.487 Z M148.69,126.021 L149.881,126.021 L149.881,123.935 L148.69,123.935 L148.69,126.021 Z M148.69,135.554 L149.881,135.554 L149.881,133.468 L148.69,133.468 L148.69,135.554 Z M148.69,145.088 L149.881,145.088 L149.881,143.002 L148.69,143.002 L148.69,145.088 Z M148.69,154.621 L149.881,154.621 L149.881,152.536 L148.69,152.536 L148.69,154.621 Z M148.69,164.154 L149.881,164.154 L149.881,162.069 L148.69,162.069 L148.69,164.154 Z M148.69,173.688 L149.881,173.688 L149.881,171.603 L148.69,171.603 L148.69,173.688 Z" id="Fill-136"></path>
                    <path d="M161.102,2.085 L162.293,2.085 L162.293,5.68434189e-14 L161.102,5.68434189e-14 L161.102,2.085 Z M161.102,11.618 L162.293,11.618 L162.293,9.533 L161.102,9.533 L161.102,11.618 Z M161.102,21.152 L162.293,21.152 L162.293,19.067 L161.102,19.067 L161.102,21.152 Z M161.102,30.686 L162.293,30.686 L162.293,28.6 L161.102,28.6 L161.102,30.686 Z M161.102,40.219 L162.293,40.219 L162.293,38.133 L161.102,38.133 L161.102,40.219 Z M161.102,49.753 L162.293,49.753 L162.293,47.667 L161.102,47.667 L161.102,49.753 Z M161.102,59.286 L162.293,59.286 L162.293,57.2 L161.102,57.2 L161.102,59.286 Z M161.102,68.819 L162.293,68.819 L162.293,66.734 L161.102,66.734 L161.102,68.819 Z M161.102,78.353 L162.293,78.353 L162.293,76.268 L161.102,76.268 L161.102,78.353 Z M161.102,87.886 L162.293,87.886 L162.293,85.801 L161.102,85.801 L161.102,87.886 Z M161.102,97.42 L162.293,97.42 L162.293,95.335 L161.102,95.335 L161.102,97.42 Z M161.102,106.954 L162.293,106.954 L162.293,104.868 L161.102,104.868 L161.102,106.954 Z M161.102,116.487 L162.293,116.487 L162.293,114.402 L161.102,114.402 L161.102,116.487 Z M161.102,126.021 L162.293,126.021 L162.293,123.935 L161.102,123.935 L161.102,126.021 Z M161.102,135.554 L162.293,135.554 L162.293,133.468 L161.102,133.468 L161.102,135.554 Z M161.102,145.088 L162.293,145.088 L162.293,143.002 L161.102,143.002 L161.102,145.088 Z M161.102,154.621 L162.293,154.621 L162.293,152.536 L161.102,152.536 L161.102,154.621 Z M161.102,164.154 L162.293,164.154 L162.293,162.069 L161.102,162.069 L161.102,164.154 Z M161.102,173.688 L162.293,173.688 L162.293,171.603 L161.102,171.603 L161.102,173.688 Z" id="Fill-137"></path>
                    <path d="M86.63,2.085 L87.822,2.085 L87.822,5.68434189e-14 L86.63,5.68434189e-14 L86.63,2.085 Z M86.63,11.618 L87.822,11.618 L87.822,9.533 L86.63,9.533 L86.63,11.618 Z M86.63,21.152 L87.822,21.152 L87.822,19.067 L86.63,19.067 L86.63,21.152 Z M86.63,30.686 L87.822,30.686 L87.822,28.6 L86.63,28.6 L86.63,30.686 Z M86.63,40.219 L87.822,40.219 L87.822,38.133 L86.63,38.133 L86.63,40.219 Z M86.63,49.753 L87.822,49.753 L87.822,47.667 L86.63,47.667 L86.63,49.753 Z M86.63,59.286 L87.822,59.286 L87.822,57.2 L86.63,57.2 L86.63,59.286 Z M86.63,68.819 L87.822,68.819 L87.822,66.734 L86.63,66.734 L86.63,68.819 Z M86.63,78.353 L87.822,78.353 L87.822,76.268 L86.63,76.268 L86.63,78.353 Z M86.63,87.886 L87.822,87.886 L87.822,85.801 L86.63,85.801 L86.63,87.886 Z M86.63,97.42 L87.822,97.42 L87.822,95.335 L86.63,95.335 L86.63,97.42 Z M86.63,106.954 L87.822,106.954 L87.822,104.868 L86.63,104.868 L86.63,106.954 Z M86.63,116.487 L87.822,116.487 L87.822,114.402 L86.63,114.402 L86.63,116.487 Z M86.63,126.021 L87.822,126.021 L87.822,123.935 L86.63,123.935 L86.63,126.021 Z M86.63,135.554 L87.822,135.554 L87.822,133.468 L86.63,133.468 L86.63,135.554 Z M86.63,145.088 L87.822,145.088 L87.822,143.002 L86.63,143.002 L86.63,145.088 Z M86.63,154.621 L87.822,154.621 L87.822,152.536 L86.63,152.536 L86.63,154.621 Z M86.63,164.154 L87.822,164.154 L87.822,162.069 L86.63,162.069 L86.63,164.154 Z M86.63,173.688 L87.822,173.688 L87.822,171.603 L86.63,171.603 L86.63,173.688 Z" id="Fill-138"></path>
                    <path d="M74.218,2.085 L75.41,2.085 L75.41,5.68434189e-14 L74.218,5.68434189e-14 L74.218,2.085 Z M74.218,11.618 L75.41,11.618 L75.41,9.533 L74.218,9.533 L74.218,11.618 Z M74.218,21.152 L75.41,21.152 L75.41,19.067 L74.218,19.067 L74.218,21.152 Z M74.218,30.686 L75.41,30.686 L75.41,28.6 L74.218,28.6 L74.218,30.686 Z M74.218,40.219 L75.41,40.219 L75.41,38.133 L74.218,38.133 L74.218,40.219 Z M74.218,49.753 L75.41,49.753 L75.41,47.667 L74.218,47.667 L74.218,49.753 Z M74.218,59.286 L75.41,59.286 L75.41,57.2 L74.218,57.2 L74.218,59.286 Z M74.218,68.819 L75.41,68.819 L75.41,66.734 L74.218,66.734 L74.218,68.819 Z M74.218,78.353 L75.41,78.353 L75.41,76.268 L74.218,76.268 L74.218,78.353 Z M74.218,87.886 L75.41,87.886 L75.41,85.801 L74.218,85.801 L74.218,87.886 Z M74.218,97.42 L75.41,97.42 L75.41,95.335 L74.218,95.335 L74.218,97.42 Z M74.218,106.954 L75.41,106.954 L75.41,104.868 L74.218,104.868 L74.218,106.954 Z M74.218,116.487 L75.41,116.487 L75.41,114.402 L74.218,114.402 L74.218,116.487 Z M74.218,126.021 L75.41,126.021 L75.41,123.935 L74.218,123.935 L74.218,126.021 Z M74.218,135.554 L75.41,135.554 L75.41,133.468 L74.218,133.468 L74.218,135.554 Z M74.218,145.088 L75.41,145.088 L75.41,143.002 L74.218,143.002 L74.218,145.088 Z M74.218,154.621 L75.41,154.621 L75.41,152.536 L74.218,152.536 L74.218,154.621 Z M74.218,164.154 L75.41,164.154 L75.41,162.069 L74.218,162.069 L74.218,164.154 Z M74.218,173.688 L75.41,173.688 L75.41,171.603 L74.218,171.603 L74.218,173.688 Z" id="Fill-139"></path>
                    <path d="M61.806,2.085 L62.998,2.085 L62.998,5.68434189e-14 L61.806,5.68434189e-14 L61.806,2.085 Z M61.806,11.618 L62.998,11.618 L62.998,9.533 L61.806,9.533 L61.806,11.618 Z M61.806,21.152 L62.998,21.152 L62.998,19.067 L61.806,19.067 L61.806,21.152 Z M61.806,30.686 L62.998,30.686 L62.998,28.6 L61.806,28.6 L61.806,30.686 Z M61.806,40.219 L62.998,40.219 L62.998,38.133 L61.806,38.133 L61.806,40.219 Z M61.806,49.753 L62.998,49.753 L62.998,47.667 L61.806,47.667 L61.806,49.753 Z M61.806,59.286 L62.998,59.286 L62.998,57.2 L61.806,57.2 L61.806,59.286 Z M61.806,68.819 L62.998,68.819 L62.998,66.734 L61.806,66.734 L61.806,68.819 Z M61.806,78.353 L62.998,78.353 L62.998,76.268 L61.806,76.268 L61.806,78.353 Z M61.806,87.886 L62.998,87.886 L62.998,85.801 L61.806,85.801 L61.806,87.886 Z M61.806,97.42 L62.998,97.42 L62.998,95.335 L61.806,95.335 L61.806,97.42 Z M61.806,106.954 L62.998,106.954 L62.998,104.868 L61.806,104.868 L61.806,106.954 Z M61.806,116.487 L62.998,116.487 L62.998,114.402 L61.806,114.402 L61.806,116.487 Z M61.806,126.021 L62.998,126.021 L62.998,123.935 L61.806,123.935 L61.806,126.021 Z M61.806,135.554 L62.998,135.554 L62.998,133.468 L61.806,133.468 L61.806,135.554 Z M61.806,145.088 L62.998,145.088 L62.998,143.002 L61.806,143.002 L61.806,145.088 Z M61.806,154.621 L62.998,154.621 L62.998,152.536 L61.806,152.536 L61.806,154.621 Z M61.806,164.154 L62.998,164.154 L62.998,162.069 L61.806,162.069 L61.806,164.154 Z M61.806,173.688 L62.998,173.688 L62.998,171.603 L61.806,171.603 L61.806,173.688 Z" id="Fill-140"></path>
                    <path d="M49.394,2.085 L50.586,2.085 L50.586,5.68434189e-14 L49.394,5.68434189e-14 L49.394,2.085 Z M49.394,11.618 L50.586,11.618 L50.586,9.533 L49.394,9.533 L49.394,11.618 Z M49.394,21.152 L50.586,21.152 L50.586,19.067 L49.394,19.067 L49.394,21.152 Z M49.394,30.686 L50.586,30.686 L50.586,28.6 L49.394,28.6 L49.394,30.686 Z M49.394,40.219 L50.586,40.219 L50.586,38.133 L49.394,38.133 L49.394,40.219 Z M49.394,49.753 L50.586,49.753 L50.586,47.667 L49.394,47.667 L49.394,49.753 Z M49.394,59.286 L50.586,59.286 L50.586,57.2 L49.394,57.2 L49.394,59.286 Z M49.394,68.819 L50.586,68.819 L50.586,66.734 L49.394,66.734 L49.394,68.819 Z M49.394,78.353 L50.586,78.353 L50.586,76.268 L49.394,76.268 L49.394,78.353 Z M49.394,87.886 L50.586,87.886 L50.586,85.801 L49.394,85.801 L49.394,87.886 Z M49.394,97.42 L50.586,97.42 L50.586,95.335 L49.394,95.335 L49.394,97.42 Z M49.394,106.954 L50.586,106.954 L50.586,104.868 L49.394,104.868 L49.394,106.954 Z M49.394,116.487 L50.586,116.487 L50.586,114.402 L49.394,114.402 L49.394,116.487 Z M49.394,126.021 L50.586,126.021 L50.586,123.935 L49.394,123.935 L49.394,126.021 Z M49.394,135.554 L50.586,135.554 L50.586,133.468 L49.394,133.468 L49.394,135.554 Z M49.394,145.088 L50.586,145.088 L50.586,143.002 L49.394,143.002 L49.394,145.088 Z M49.394,154.621 L50.586,154.621 L50.586,152.536 L49.394,152.536 L49.394,154.621 Z M49.394,164.154 L50.586,164.154 L50.586,162.069 L49.394,162.069 L49.394,164.154 Z M49.394,173.688 L50.586,173.688 L50.586,171.603 L49.394,171.603 L49.394,173.688 Z" id="Fill-141"></path>
                    <path d="M36.982,2.085 L38.174,2.085 L38.174,5.68434189e-14 L36.982,5.68434189e-14 L36.982,2.085 Z M36.982,11.618 L38.174,11.618 L38.174,9.533 L36.982,9.533 L36.982,11.618 Z M36.982,21.152 L38.174,21.152 L38.174,19.067 L36.982,19.067 L36.982,21.152 Z M36.982,30.686 L38.174,30.686 L38.174,28.6 L36.982,28.6 L36.982,30.686 Z M36.982,40.219 L38.174,40.219 L38.174,38.133 L36.982,38.133 L36.982,40.219 Z M36.982,49.753 L38.174,49.753 L38.174,47.667 L36.982,47.667 L36.982,49.753 Z M36.982,59.286 L38.174,59.286 L38.174,57.2 L36.982,57.2 L36.982,59.286 Z M36.982,68.819 L38.174,68.819 L38.174,66.734 L36.982,66.734 L36.982,68.819 Z M36.982,78.353 L38.174,78.353 L38.174,76.268 L36.982,76.268 L36.982,78.353 Z M36.982,87.886 L38.174,87.886 L38.174,85.801 L36.982,85.801 L36.982,87.886 Z M36.982,97.42 L38.174,97.42 L38.174,95.335 L36.982,95.335 L36.982,97.42 Z M36.982,106.954 L38.174,106.954 L38.174,104.868 L36.982,104.868 L36.982,106.954 Z M36.982,116.487 L38.174,116.487 L38.174,114.402 L36.982,114.402 L36.982,116.487 Z M36.982,126.021 L38.174,126.021 L38.174,123.935 L36.982,123.935 L36.982,126.021 Z M36.982,135.554 L38.174,135.554 L38.174,133.468 L36.982,133.468 L36.982,135.554 Z M36.982,145.088 L38.174,145.088 L38.174,143.002 L36.982,143.002 L36.982,145.088 Z M36.982,154.621 L38.174,154.621 L38.174,152.536 L36.982,152.536 L36.982,154.621 Z M36.982,164.154 L38.174,164.154 L38.174,162.069 L36.982,162.069 L36.982,164.154 Z M36.982,173.688 L38.174,173.688 L38.174,171.603 L36.982,171.603 L36.982,173.688 Z" id="Fill-142"></path>
                    <path d="M24.57,2.085 L25.762,2.085 L25.762,5.68434189e-14 L24.57,5.68434189e-14 L24.57,2.085 Z M24.57,11.618 L25.762,11.618 L25.762,9.533 L24.57,9.533 L24.57,11.618 Z M24.57,21.152 L25.762,21.152 L25.762,19.067 L24.57,19.067 L24.57,21.152 Z M24.57,30.686 L25.762,30.686 L25.762,28.6 L24.57,28.6 L24.57,30.686 Z M24.57,40.219 L25.762,40.219 L25.762,38.133 L24.57,38.133 L24.57,40.219 Z M24.57,49.753 L25.762,49.753 L25.762,47.667 L24.57,47.667 L24.57,49.753 Z M24.57,59.286 L25.762,59.286 L25.762,57.2 L24.57,57.2 L24.57,59.286 Z M24.57,68.819 L25.762,68.819 L25.762,66.734 L24.57,66.734 L24.57,68.819 Z M24.57,78.353 L25.762,78.353 L25.762,76.268 L24.57,76.268 L24.57,78.353 Z M24.57,87.886 L25.762,87.886 L25.762,85.801 L24.57,85.801 L24.57,87.886 Z M24.57,97.42 L25.762,97.42 L25.762,95.335 L24.57,95.335 L24.57,97.42 Z M24.57,106.954 L25.762,106.954 L25.762,104.868 L24.57,104.868 L24.57,106.954 Z M24.57,116.487 L25.762,116.487 L25.762,114.402 L24.57,114.402 L24.57,116.487 Z M24.57,126.021 L25.762,126.021 L25.762,123.935 L24.57,123.935 L24.57,126.021 Z M24.57,135.554 L25.762,135.554 L25.762,133.468 L24.57,133.468 L24.57,135.554 Z M24.57,145.088 L25.762,145.088 L25.762,143.002 L24.57,143.002 L24.57,145.088 Z M24.57,154.621 L25.762,154.621 L25.762,152.536 L24.57,152.536 L24.57,154.621 Z M24.57,164.154 L25.762,164.154 L25.762,162.069 L24.57,162.069 L24.57,164.154 Z M24.57,173.688 L25.762,173.688 L25.762,171.603 L24.57,171.603 L24.57,173.688 Z" id="Fill-143"></path>
                    <path d="M12.159,2.085 L13.35,2.085 L13.35,5.68434189e-14 L12.159,5.68434189e-14 L12.159,2.085 Z M12.159,11.618 L13.35,11.618 L13.35,9.533 L12.159,9.533 L12.159,11.618 Z M12.159,21.152 L13.35,21.152 L13.35,19.067 L12.159,19.067 L12.159,21.152 Z M12.159,30.686 L13.35,30.686 L13.35,28.6 L12.159,28.6 L12.159,30.686 Z M12.159,40.219 L13.35,40.219 L13.35,38.133 L12.159,38.133 L12.159,40.219 Z M12.159,49.753 L13.35,49.753 L13.35,47.667 L12.159,47.667 L12.159,49.753 Z M12.159,59.286 L13.35,59.286 L13.35,57.2 L12.159,57.2 L12.159,59.286 Z M12.159,68.819 L13.35,68.819 L13.35,66.734 L12.159,66.734 L12.159,68.819 Z M12.159,78.353 L13.35,78.353 L13.35,76.268 L12.159,76.268 L12.159,78.353 Z M12.159,87.886 L13.35,87.886 L13.35,85.801 L12.159,85.801 L12.159,87.886 Z M12.159,97.42 L13.35,97.42 L13.35,95.335 L12.159,95.335 L12.159,97.42 Z M12.159,106.954 L13.35,106.954 L13.35,104.868 L12.159,104.868 L12.159,106.954 Z M12.159,116.487 L13.35,116.487 L13.35,114.402 L12.159,114.402 L12.159,116.487 Z M12.159,126.021 L13.35,126.021 L13.35,123.935 L12.159,123.935 L12.159,126.021 Z M12.159,135.554 L13.35,135.554 L13.35,133.468 L12.159,133.468 L12.159,135.554 Z M12.159,145.088 L13.35,145.088 L13.35,143.002 L12.159,143.002 L12.159,145.088 Z M12.159,154.621 L13.35,154.621 L13.35,152.536 L12.159,152.536 L12.159,154.621 Z M12.159,164.154 L13.35,164.154 L13.35,162.069 L12.159,162.069 L12.159,164.154 Z M12.159,173.688 L13.35,173.688 L13.35,171.603 L12.159,171.603 L12.159,173.688 Z" id="Fill-144"></path>
                    <path d="M0,2.085 L1.192,2.085 L1.192,5.68434189e-14 L0,5.68434189e-14 L0,2.085 Z M0,11.618 L1.192,11.618 L1.192,9.533 L0,9.533 L0,11.618 Z M0,21.152 L1.192,21.152 L1.192,19.067 L0,19.067 L0,21.152 Z M0,30.686 L1.192,30.686 L1.192,28.6 L0,28.6 L0,30.686 Z M0,40.219 L1.192,40.219 L1.192,38.133 L0,38.133 L0,40.219 Z M0,49.753 L1.192,49.753 L1.192,47.667 L0,47.667 L0,49.753 Z M0,59.286 L1.192,59.286 L1.192,57.2 L0,57.2 L0,59.286 Z M0,68.819 L1.192,68.819 L1.192,66.734 L0,66.734 L0,68.819 Z M0,78.353 L1.192,78.353 L1.192,76.268 L0,76.268 L0,78.353 Z M0,87.886 L1.192,87.886 L1.192,85.801 L0,85.801 L0,87.886 Z M0,97.42 L1.192,97.42 L1.192,95.335 L0,95.335 L0,97.42 Z M0,106.954 L1.192,106.954 L1.192,104.868 L0,104.868 L0,106.954 Z M0,116.487 L1.192,116.487 L1.192,114.402 L0,114.402 L0,116.487 Z M0,126.021 L1.192,126.021 L1.192,123.935 L0,123.935 L0,126.021 Z M0,135.554 L1.192,135.554 L1.192,133.468 L0,133.468 L0,135.554 Z M0,145.088 L1.192,145.088 L1.192,143.002 L0,143.002 L0,145.088 Z M0,154.621 L1.192,154.621 L1.192,152.536 L0,152.536 L0,154.621 Z M0,164.154 L1.192,164.154 L1.192,162.069 L0,162.069 L0,164.154 Z M0,173.688 L1.192,173.688 L1.192,171.603 L0,171.603 L0,173.688 Z" id="Fill-145"></path>
                </g>
                <g id="phone" transform="translate(78.000000, 35.000000)">
                    <path d="M191.14848,354.981652 L71.02848,354.426 C56.58184,354.36048 44.9224,342.59704 44.9835189,328.1504 L46.25672,27.00592 C46.31704,12.55096 58.08776,0.8832 72.54272,0.949476637 L192.66376,1.50512 C207.11144,1.57168 218.76984,13.33408 218.708721,27.78072 L217.43656,328.92624 C217.37416,343.38224 205.60448,355.04896 191.14848,354.981652" id="Fill-30" fill="#132529"></path>
                    <path d="M192.49216,11.89784 L169.20344,11.79072 C166.08032,11.77616 163.53648,14.41256 163.524,17.67608 L163.50424,21.90056 C163.49176,25.16616 160.94792,27.80152 157.8248,27.78696 L112.4288,27.57688 C109.30568,27.56336 106.78576,24.90408 106.79928,21.63848 L106.81696,17.414 C106.83048,14.14944 104.30952,11.49016 101.1864,11.47664 L92.99536,11.43816 L72.61136,11.34436 C62.488,11.29776 54.24496,19.46904 54.20232,29.5924 L52.9593537,323.53176 C52.91688,333.64992 61.08192,341.88776 71.20008,341.93456 L191.08088,342.48804 C201.2032,342.53464 209.44728,334.3644 209.48992,324.24104 L210.732886,30.30064 C210.77536,20.18248 202.61032,11.94464 192.49216,11.89784" id="Fill-31" fill="#FFFFFF"></path>
                    <path d="M0.31992,258.89472 L0.31888,258.89472 L1.12176,253.09984 L1.1228,253.10088 C0.87632,254.94584 0.60592,256.90624 0.31992,258.89472" id="Fill-125" fill="#8C8F8B"></path>
                    <path d="M63.06208,260.0876 C63.03712,260.0876 62.8676,259.9732 62.56496,259.75376 C62.34344,259.58944 62.08032,259.39392 61.77456,259.16616 C61.77664,259.13808 61.77872,259.11 61.78184,259.08088 L63.0652,260.08656 C63.06416,260.0876 63.06416,260.0876 63.06208,260.0876" id="Fill-141" fill="#353837"></path>
                </g>
                <g id="btn-ghost" transform="translate(144.000000, 208.000000)">
                    <g id="btn">
                        <path d="M17.5,0 L115.5,0 C125.164983,-1.7754286e-15 133,7.83501688 133,17.5 C133,27.1649831 125.164983,35 115.5,35 L17.5,35 C7.83501688,35 1.18361906e-15,27.1649831 0,17.5 C-1.18361906e-15,7.83501688 7.83501688,1.7754286e-15 17.5,0 Z" id="Base" fill="#0777FF"></path>
                        <path d="M54.017,23 L54.017,19.206 L55.851,19.206 C56.6536667,19.206 57.3116667,19.0683333 57.825,18.793 C58.3383333,18.5176667 58.7163333,18.1536667 58.959,17.701 C59.2016667,17.2483333 59.323,16.7513333 59.323,16.21 C59.323,15.6406667 59.197,15.1273333 58.945,14.67 C58.693,14.2126667 58.3103333,13.8533333 57.797,13.592 C57.2836667,13.3306667 56.635,13.2 55.851,13.2 L55.851,13.2 L52.225,13.2 L52.225,23 L54.017,23 Z M55.739,17.75 L54.017,17.75 L54.017,14.656 L55.739,14.656 C56.3643333,14.656 56.8146667,14.7936667 57.09,15.069 C57.3653333,15.3443333 57.503,15.7246667 57.503,16.21 C57.503,16.686 57.3653333,17.0616667 57.09,17.337 C56.8146667,17.6123333 56.3643333,17.75 55.739,17.75 L55.739,17.75 Z M62.919,23 L63.717,20.732 L67.539,20.732 L68.323,23 L70.227,23 L66.643,13.2 L64.627,13.2 L61.043,23 L62.919,23 Z M67.049,19.332 L64.207,19.332 L65.621,15.258 L67.049,19.332 Z M76.679,23 L76.679,19.514 L79.955,13.2 L77.953,13.2 L75.797,17.722 L73.627,13.2 L71.597,13.2 L74.887,19.514 L74.887,23 L76.679,23 Z" id="PAY" fill="#FFFFFF" fill-rule="nonzero"></path>
                    </g>
                </g>
                <g id="visa-logo" transform="translate(0.000000, 157.000000)">
                    <rect id="Rectangle" stroke="#D4EBFF" fill="#FFFFFF" x="0.5" y="0.5" width="110" height="58" rx="3"></rect>
                    <g transform="translate(17.000000, 17.000000)" fill="#00053E" fill-rule="nonzero" id="Shape">
                        <path d="M37.9908144,0.45927 L32.8653612,24.4147932 L26.6744016,24.4147932 L31.7998548,0.45927 L37.9908144,0.45927 Z M64.0773504,15.9274836 L67.3473528,6.9257916 L69.2211744,15.9274836 L64.0773504,15.9274836 Z M70.9847712,24.4147932 L76.7164608,24.4147932 L71.7196032,0.45927 L66.4288128,0.45927 C65.2347108,0.45927 64.2426876,1.1573604 63.7834176,2.2228668 L54.4877928,24.433164 L60.991056,24.433164 L62.277012,20.850858 L70.2315684,20.850858 L70.9847712,24.4147932 Z M54.8184672,16.5888324 C54.836838,10.2692772 46.0739664,9.920232 46.1290788,7.0911288 C46.1474496,6.2277012 46.9741356,5.327532 48.7561032,5.0887116 C49.6379016,4.9784868 52.081218,4.8866328 54.8735796,6.154218 L55.9574568,1.0655064 C54.469422,0.5143824 52.540488,-2.84217094e-14 50.152284,-2.84217094e-14 C44.0348076,-2.84217094e-14 39.7176696,3.2516316 39.680928,7.9178148 C39.6441864,11.3715252 42.7672224,13.2820884 45.1186848,14.4394488 C47.5252596,15.61518 48.3335748,16.3683828 48.3335748,17.4155184 C48.315204,19.013778 46.4046408,19.7302392 44.6226732,19.7669808 C41.4996372,19.8220932 39.6992988,18.921924 38.2480056,18.2605752 L37.1273868,23.514624 C38.57868,24.1759728 41.242446,24.7638384 44.0164368,24.7822871 C50.5380708,24.80058 54.7817256,21.5673192 54.8184672,16.5888324 M29.1360888,0.45927 L19.0872612,24.4147932 L12.5288856,24.4147932 L7.5871404,5.2907904 C7.2932076,4.1150592 7.0360164,3.67416 6.1174764,3.1781484 C4.6294416,2.3698332 2.1677544,1.6166304 -7.67386155e-13,1.1389896 L0.1469664,0.4408992 L10.6918056,0.4408992 C12.032874,0.4408992 13.2453468,1.3410684 13.5576504,2.8842156 L16.166304,16.7541696 L22.6144548,0.4408992 L29.1360888,0.4408992 L29.1360888,0.45927 Z"></path>
                    </g>
                </g>
                <g id="discovery" transform="translate(55.000000, 74.000000)">
                    <rect id="Rectangle" stroke="#D4EBFF" fill="#FFFFFF" x="0.5" y="0.5" width="144" height="58" rx="3"></rect>
                    <g id="Discover-02" transform="translate(14.000000, 19.000000)" fill-rule="nonzero">
                        <path d="M5.44,0.608 L0.16,0.608 L0.16,19.104 L5.44,19.104 C8.224,19.104 10.272,18.432 12.032,16.96 C14.144,15.2 15.392,12.576 15.392,9.856 C15.36,4.416 11.296,0.608 5.44,0.608 Z M9.664,14.496 C8.544,15.52 7.072,15.968 4.736,15.968 L3.776,15.968 L3.776,3.744 L4.736,3.744 C7.072,3.744 8.48,4.16 9.664,5.248 C10.912,6.368 11.648,8.064 11.648,9.856 C11.648,11.616 10.912,13.376 9.664,14.496 Z" id="Shape" fill="#231F20"></path>
                        <rect id="XMLID_422_" fill="#231F20" x="17.024" y="0.608" width="3.616" height="18.496"></rect>
                        <path d="M29.44,7.712 C27.264,6.912 26.656,6.368 26.656,5.376 C26.656,4.224 27.776,3.328 29.344,3.328 C30.432,3.328 31.296,3.776 32.256,4.832 L34.144,2.368 C32.608,1.024 30.752,0.32 28.704,0.32 C25.44,0.32 22.944,2.592 22.944,5.6 C22.944,8.16 24.096,9.44 27.488,10.656 C28.896,11.168 29.632,11.488 29.984,11.712 C30.72,12.192 31.072,12.864 31.072,13.632 C31.072,15.136 29.888,16.224 28.288,16.224 C26.56,16.224 25.184,15.36 24.352,13.76 L22.016,16 C23.68,18.432 25.664,19.52 28.416,19.52 C32.16,19.52 34.784,17.024 34.784,13.44 C34.784,10.528 33.568,9.216 29.44,7.712 Z" id="XMLID_421_" fill="#231F20"></path>
                        <path d="M35.904,9.856 C35.904,15.296 40.16,19.488 45.664,19.488 C47.2,19.488 48.544,19.168 50.176,18.4 L50.176,14.144 C48.736,15.584 47.456,16.16 45.824,16.16 C42.208,16.16 39.616,13.536 39.616,9.792 C39.616,6.24 42.272,3.456 45.664,3.456 C47.392,3.456 48.672,4.064 50.176,5.536 L50.176,1.28 C48.608,0.48 47.296,0.16 45.728,0.16 C40.288,0.192 35.904,4.48 35.904,9.856 Z" id="XMLID_420_" fill="#231F20"></path>
                        <polygon id="XMLID_419_" fill="#231F20" points="78.752 13.024 73.824 0.608 69.888 0.608 77.76 19.584 79.68 19.584 87.68 0.608 83.776 0.608"></polygon>
                        <polygon id="XMLID_418_" fill="#231F20" points="89.312 19.104 99.52 19.104 99.52 15.968 92.896 15.968 92.896 10.976 99.264 10.976 99.264 7.84 92.896 7.84 92.896 3.744 99.52 3.744 99.52 0.608 89.312 0.608"></polygon>
                        <path d="M113.792,6.08 C113.792,2.624 111.424,0.608 107.264,0.608 L101.92,0.608 L101.92,19.104 L105.536,19.104 L105.536,11.68 L106.016,11.68 L111.008,19.104 L115.456,19.104 L109.632,11.328 C112.288,10.752 113.792,8.896 113.792,6.08 Z M106.56,9.12 L105.504,9.12 L105.504,3.52 L106.624,3.52 C108.864,3.52 110.08,4.448 110.08,6.272 C110.08,8.128 108.864,9.12 106.56,9.12 Z" id="Shape" fill="#231F20"></path>
                        <circle id="XMLID_415_" fill="url(#linearGradient-1)" cx="61.184" cy="9.92" r="9.824"></circle>
                        <circle id="XMLID_414_" fill="url(#linearGradient-2)" opacity="0.65" cx="61.184" cy="9.92" r="9.824"></circle>
                        <g id="XMLID_430_" transform="translate(113.920000, 0.000000)" fill="#231F20">
                            <path d="M2.176,1.312 C2.176,0.992 1.952,0.8 1.568,0.8 L1.056,0.8 L1.056,2.432 L1.44,2.432 L1.44,1.792 L1.888,2.432 L2.368,2.432 L1.824,1.76 C2.048,1.696 2.176,1.536 2.176,1.312 Z M1.504,1.536 L1.44,1.536 L1.44,1.12 L1.504,1.12 C1.696,1.12 1.792,1.184 1.792,1.344 C1.792,1.472 1.696,1.536 1.504,1.536 Z" id="Shape"></path>
                            <path d="M1.632,0.192 C0.832,0.192 0.224,0.832 0.224,1.6 C0.224,2.4 0.864,3.008 1.632,3.008 C2.4,3.008 3.04,2.368 3.04,1.6 C3.04,0.832 2.4,0.192 1.632,0.192 Z M1.632,2.784 C1.024,2.784 0.512,2.272 0.512,1.632 C0.512,0.992 1.024,0.48 1.632,0.48 C2.24,0.48 2.752,1.024 2.752,1.632 C2.752,2.272 2.24,2.784 1.632,2.784 Z" id="Shape"></path>
                        </g>
                    </g>
                </g>
                <g id="jobox-logo" transform="translate(144.000000, 168.000000)">
                    <g id="Group">
                        <path d="M39.7726848,0.131328 L39.7726848,12.5812224 C39.7726848,16.4947968 37.329984,18.7536384 33.4164096,18.7536384 C30.8161152,18.7536384 28.7148672,17.6767488 27.0864,15.8118912 L29.2401792,12.6862848 C30.5534592,14.052096 32.0243328,14.7350016 33.1012224,14.7350016 C34.3357056,14.7350016 35.0711424,13.9732992 35.0711424,12.47616 L35.0711424,0.131328 L39.7726848,0.131328 Z M53.6955808,-4.79616347e-14 C59.395216,-4.79616347e-14 63.6502432,3.9923712 63.6502432,9.324288 C63.6502432,14.6824704 59.395216,18.7536384 53.6955808,18.7536384 C48.0222112,18.7536384 43.767184,14.708736 43.767184,9.324288 C43.767184,3.9661056 48.0222112,-4.79616347e-14 53.6955808,-4.79616347e-14 Z M53.748112,3.9135744 C50.9114272,3.9135744 48.5475232,6.2512128 48.5475232,9.3505536 C48.5475232,12.4498944 50.9376928,14.840064 53.748112,14.840064 C56.5847968,14.840064 58.8436384,12.4498944 58.8436384,9.3505536 C58.8436384,6.2512128 56.5847968,3.9135744 53.748112,3.9135744 Z M67.9599296,0.1575936 L76.6538432,0.1575936 C80.7775424,0.1575936 83.4041024,1.9436544 83.4041024,4.7540736 C83.4041024,6.697728 82.1958848,8.2473984 80.2522304,8.798976 C82.5636032,9.2454912 84.0344768,11.0578176 84.0344768,13.4479872 C84.0344768,16.5735936 81.3028544,18.5435136 76.9690304,18.5435136 L67.9599296,18.5435136 L67.9599296,0.1575936 Z M72.6089408,3.7297152 L72.6089408,7.5119616 L76.3911872,7.5119616 C77.7569984,7.5119616 78.6237632,6.7765248 78.6237632,5.5945728 C78.6237632,4.4126208 77.7569984,3.7297152 76.3911872,3.7297152 L72.6089408,3.7297152 Z M72.6089408,10.8739584 L72.6089408,14.9451264 L76.3911872,14.9451264 C78.1247168,14.9451264 79.2016064,14.183424 79.2016064,12.870144 C79.2016064,11.6356608 78.1247168,10.8739584 76.3911872,10.8739584 L72.6089408,10.8739584 Z M97.3007328,-4.79616347e-14 C103.000368,-4.79616347e-14 107.255395,3.9923712 107.255395,9.324288 C107.255395,14.6824704 103.000368,18.7536384 97.3007328,18.7536384 C91.6273632,18.7536384 87.372336,14.708736 87.372336,9.324288 C87.372336,3.9661056 91.6273632,-4.79616347e-14 97.3007328,-4.79616347e-14 Z M97.353264,3.9135744 C94.5165792,3.9135744 92.1526752,6.2512128 92.1526752,9.3505536 C92.1526752,12.4498944 94.5428448,14.840064 97.353264,14.840064 C100.189949,14.840064 102.44879,12.4498944 102.44879,9.3505536 C102.44879,6.2512128 100.189949,3.9135744 97.353264,3.9135744 L97.353264,3.9135744 Z M121.373915,8.930304 L127.966581,18.5435136 L122.372008,18.5435136 L118.405902,12.6862848 L114.439797,18.5435136 L109.002818,18.5435136 L115.569218,9.1404288 L109.423067,0.1575936 L114.860046,0.1575936 L118.405902,5.515776 L121.951758,0.1575936 L127.441269,0.1575936 L121.373915,8.930304 Z" id="Shape" fill="#181B31"></path>
                        <path d="M0.69768,0.8208 L13.25592,0.8208 C13.641696,0.8208 13.9536,1.2320208 13.9536,1.740096 L13.9536,11.392704 C13.9536,11.9007792 13.641696,12.312 13.25592,12.312 L0.69768,12.312 C0.311904,12.312 0,11.9007792 0,11.392704 L0,1.740096 C0,1.2320208 0.311904,0.8208 0.69768,0.8208 Z M0.4358448,13.9536 L13.518576,13.9536 C13.7590704,13.9536 13.9544208,14.1374592 13.9544208,14.364 L13.9544208,15.1848 C13.9544208,15.4113408 13.7590704,15.5952 13.518576,15.5952 L0.435024,15.5952 C0.1953504,15.5952 0,15.4113408 0,15.1848 L0,14.364 C0,14.1374592 0.1953504,13.9536 0.4358448,13.9536 Z M0.4358448,17.2368 L13.518576,17.2368 C13.7590704,17.2368 13.9544208,17.4206592 13.9544208,17.6472 L13.9544208,18.468 C13.9544208,18.6945408 13.7590704,18.8784 13.518576,18.8784 L0.435024,18.8784 C0.1953504,18.8784 0,18.6945408 0,18.468 L0,17.6472 C0,17.4206592 0.1953504,17.2368 0.4358448,17.2368 Z" id="Shape" fill="#0777FF"></path>
                    </g>
                </g>
                <g id="master" transform="translate(55.000000, 264.000000)">
                    <rect id="Rectangle" stroke="#D4EBFF" fill="#FFFFFF" x="0.5" y="0.5" width="120" height="91" rx="3"></rect>
                    <g id="Mastercard" transform="translate(24.000000, 18.000000)" fill-rule="nonzero">
                        <path d="M13.48704,57.0528 L13.48704,53.26272 C13.48704,51.8112 12.6,50.86368 11.088,50.86368 C10.32192,50.86368 9.51552,51.12576 8.93088,51.93216 C8.48736,51.24672 7.8624,50.86368 6.91488,50.86368 C6.28992,50.86368 5.6448,51.04512 5.1408,51.75072 L5.1408,50.98464 L3.8304,50.98464 L3.8304,57.0528 L5.16096,57.0528 L5.16096,53.70624 C5.16096,52.63776 5.72544,52.13376 6.61248,52.13376 C7.49952,52.13376 7.94304,52.69824 7.94304,53.70624 L7.94304,57.0528 L9.2736,57.0528 L9.2736,53.70624 C9.2736,52.63776 9.89856,52.13376 10.72512,52.13376 C11.61216,52.13376 12.05568,52.69824 12.05568,53.70624 L12.05568,57.0528 L13.48704,57.0528 Z M33.14304,50.98464 L30.98592,50.98464 L30.98592,49.15008 L29.65536,49.15008 L29.65536,50.98464 L28.44576,50.98464 L28.44576,52.19424 L29.65536,52.19424 L29.65536,54.97632 C29.65536,56.36736 30.21984,57.19392 31.73184,57.19392 C32.29632,57.19392 32.94144,57.01248 33.3648,56.7504 L32.98176,55.62144 C32.59872,55.88352 32.1552,55.944 31.8528,55.944 C31.22784,55.944 30.96576,55.56096 30.96576,54.936 L30.96576,52.2144 L33.12288,52.2144 L33.12288,50.98464 L33.14304,50.98464 Z M44.37216,50.86368 C43.60608,50.86368 43.10208,51.24672 42.79968,51.75072 L42.79968,50.98464 L41.46912,50.98464 L41.46912,57.0528 L42.79968,57.0528 L42.79968,53.64576 C42.79968,52.63776 43.2432,52.07328 44.06976,52.07328 C44.33184,52.07328 44.63424,52.13376 44.89632,52.19424 L45.27936,50.92416 C45.01728,50.86368 44.63424,50.86368 44.37216,50.86368 Z M27.37728,51.48864 C26.75232,51.04512 25.86528,50.86368 24.91776,50.86368 C23.40576,50.86368 22.39776,51.62976 22.39776,52.8192 C22.39776,53.8272 23.16384,54.39168 24.47424,54.59328 L25.0992,54.65376 C25.78464,54.77472 26.16768,54.97632 26.16768,55.27872 C26.16768,55.72224 25.66368,56.0448 24.77664,56.0448 C23.8896,56.0448 23.20416,55.72224 22.76064,55.41984 L22.13568,56.42784 C22.82112,56.93184 23.76864,57.19392 24.71616,57.19392 C26.49024,57.19392 27.49824,56.36736 27.49824,55.2384 C27.49824,54.16992 26.67168,53.60544 25.42176,53.40384 L24.7968,53.34336 C24.23232,53.28288 23.7888,53.16192 23.7888,52.77888 C23.7888,52.33536 24.23232,52.09344 24.91776,52.09344 C25.68384,52.09344 26.42976,52.416 26.8128,52.59744 L27.37728,51.48864 Z M62.63712,50.86368 C61.87104,50.86368 61.36704,51.24672 61.06464,51.75072 L61.06464,50.98464 L59.73408,50.98464 L59.73408,57.0528 L61.06464,57.0528 L61.06464,53.64576 C61.06464,52.63776 61.50816,52.07328 62.33472,52.07328 C62.5968,52.07328 62.8992,52.13376 63.16128,52.19424 L63.54432,50.92416 C63.26208,50.86368 62.87904,50.86368 62.63712,50.86368 Z M45.70272,54.00864 C45.70272,55.8432 46.9728,57.17376 48.92832,57.17376 C49.81536,57.17376 50.44032,56.99232 51.08544,56.48832 L50.46048,55.41984 C49.95648,55.80288 49.45248,55.98432 48.888,55.98432 C47.81952,55.98432 47.05344,55.21824 47.05344,54.0288 C47.05344,52.89984 47.81952,52.13376 48.888,52.07328 C49.45248,52.07328 49.95648,52.25472 50.46048,52.63776 L51.08544,51.56928 C50.46048,51.06528 49.81536,50.88384 48.92832,50.88384 C46.9728,50.86368 45.70272,52.19424 45.70272,54.00864 Z M57.96,54.00864 L57.96,50.98464 L56.62944,50.98464 L56.62944,51.75072 C56.18592,51.18624 55.56096,50.86368 54.7344,50.86368 C53.0208,50.86368 51.7104,52.19424 51.7104,54.0288 C51.7104,55.86336 53.04096,57.19392 54.7344,57.19392 C55.62144,57.19392 56.2464,56.87136 56.62944,56.30688 L56.62944,57.07296 L57.96,57.07296 L57.96,54.00864 Z M53.10144,54.00864 C53.10144,52.94016 53.78688,52.05312 54.936,52.05312 C56.00448,52.05312 56.77056,52.87968 56.77056,54.00864 C56.77056,55.07712 56.00448,55.96416 54.936,55.96416 C53.78688,55.90368 53.10144,55.09728 53.10144,54.00864 Z M37.23552,50.86368 C35.46144,50.86368 34.21152,52.13376 34.21152,54.0288 C34.21152,55.92384 35.4816,57.19392 37.31616,57.19392 C38.2032,57.19392 39.09024,56.93184 39.77568,56.36736 L39.15072,55.41984 C38.64672,55.80288 38.02176,56.0448 37.37664,56.0448 C36.55008,56.0448 35.74368,55.66176 35.54208,54.59328 L40.0176,54.59328 L40.0176,54.08928 C40.07808,52.1136 38.94912,50.86368 37.23552,50.86368 Z M37.23552,51.99264 C38.06208,51.99264 38.62656,52.49664 38.74752,53.44416 L35.5824,53.44416 C35.72352,52.63776 36.288,51.99264 37.23552,51.99264 Z M70.1568,54.00864 L70.1568,48.5856 L68.82624,48.5856 L68.82624,51.75072 C68.38272,51.18624 67.75776,50.86368 66.9312,50.86368 C65.2176,50.86368 63.9072,52.19424 63.9072,54.0288 C63.9072,55.86336 65.23776,57.19392 66.9312,57.19392 C67.81824,57.19392 68.4432,56.87136 68.82624,56.30688 L68.82624,57.07296 L70.1568,57.07296 L70.1568,54.00864 Z M65.27808,54.00864 C65.27808,52.94016 65.96352,52.05312 67.11264,52.05312 C68.18112,52.05312 68.9472,52.87968 68.9472,54.00864 C68.9472,55.07712 68.18112,55.96416 67.11264,55.96416 C65.98368,55.90368 65.27808,55.09728 65.27808,54.00864 Z M20.94624,54.00864 L20.94624,50.98464 L19.61568,50.98464 L19.61568,51.75072 C19.17216,51.18624 18.5472,50.86368 17.72064,50.86368 C16.00704,50.86368 14.69664,52.19424 14.69664,54.0288 C14.69664,55.86336 16.0272,57.19392 17.72064,57.19392 C18.60768,57.19392 19.23264,56.87136 19.61568,56.30688 L19.61568,57.07296 L20.94624,57.07296 L20.94624,54.00864 Z M16.0272,54.00864 C16.0272,52.94016 16.71264,52.05312 17.86176,52.05312 C18.93024,52.05312 19.69632,52.87968 19.69632,54.00864 C19.69632,55.07712 18.93024,55.96416 17.86176,55.96416 C16.71264,55.90368 16.0272,55.09728 16.0272,54.00864 Z" id="XMLID_2_" fill="#000000"></path>
                        <rect id="XMLID_17_" fill="#FF5F00" x="26.95392" y="4.9392" width="19.89792" height="35.74368"></rect>
                        <path d="M28.20384,22.82112 C28.20384,15.56352 31.61088,9.11232 36.85248,4.9392 C33.00192,1.9152 28.14336,0.08064 22.82112,0.08064 C10.26144,0.08064 0.08064,10.24128 0.08064,22.82112 C0.08064,35.3808 10.24128,45.5616 22.82112,45.5616 C28.1232,45.5616 32.98176,43.72704 36.85248,40.70304 C31.61088,36.5904 28.20384,30.07872 28.20384,22.82112 Z" id="XMLID_18_" fill="#EB001B"></path>
                        <path d="M73.6848,22.82112 C73.6848,35.3808 63.52416,45.5616 50.94432,45.5616 C45.64224,45.5616 40.78368,43.72704 36.91296,40.70304 C42.21504,36.52992 45.5616,30.09888 45.5616,22.82112 C45.5616,15.56352 42.15456,9.11232 36.91296,4.9392 C40.76352,1.9152 45.62208,0.08064 50.94432,0.08064 C63.52416,0.08064 73.6848,10.30176 73.6848,22.82112 Z" id="XMLID_19_" fill="#F79E1B"></path>
                    </g>
                </g>
                <g id="american-express" transform="translate(243.000000, 267.000000)">
                    <rect id="Rectangle" stroke="#D4EBFF" fill="#FFFFFF" x="0.5" y="0.5" width="120" height="91" rx="3"></rect>
                    <g id="American_Express_logo" transform="translate(27.000000, 12.000000)" fill-rule="nonzero">
                        <polygon id="path3078" fill="#016FD0" points="-1.06047082e-13 1.344e-05 67.033129 1.344e-05 67.033129 36.1864944 63.7151693 41.3708064 67.033129 45.9848458 67.033129 67.0331424 -1.13686838e-13 67.0331424 -1.13686838e-13 32.9203795 2.07372406 30.5355994 -1.06047082e-13 28.2545021"></polygon>
                        <path d="M13.0126181,46.7106461 L13.0126181,36.1864944 L24.1557402,36.1864944 L25.3512766,37.7450237 L26.5863461,36.1864944 L67.033129,36.1864944 L67.033129,45.9848458 C67.033129,45.9848458 65.9753741,46.7001226 64.7520317,46.7106461 L42.3558132,46.7106461 L41.0078928,45.0516662 L41.0078928,46.7106461 L36.5908603,46.7106461 L36.5908603,43.8787171 C36.5908603,43.8787171 35.987487,44.2740211 34.6830348,44.2740211 L33.1795847,44.2740211 L33.1795847,46.7106461 L26.4918246,46.7106461 L25.2979964,45.1186915 L24.0858381,46.7106461 L13.0126181,46.7106461 Z" id="path3082" fill="#FFFFFF"></path>
                        <path d="M-5.68434189e-14,28.2545021 L2.512818,22.3962346 L6.85847434,22.3962346 L8.28452755,25.6777987 L8.28452755,22.3962346 L13.686579,22.3962346 L14.5355092,24.7680518 L15.3585183,22.3962346 L39.6081289,22.3962346 L39.6081289,23.5886246 C39.6081289,23.5886246 40.8829095,22.3962346 42.9779307,22.3962346 L50.846042,22.4237328 L52.2474772,25.6623494 L52.2474772,22.3962346 L56.7681952,22.3962346 L58.0124301,24.256559 L58.0124301,22.3962346 L62.5746227,22.3962346 L62.5746227,32.9203795 L58.0124301,32.9203795 L56.8200387,31.0540272 L56.8200387,32.9203795 L50.1781016,32.9203795 L49.5101611,31.2613997 L47.7245845,31.2613997 L47.0675157,32.9203795 L42.5631857,32.9203795 C40.7604859,32.9203795 39.6081289,31.752336 39.6081289,31.752336 L39.6081289,32.9203795 L32.8166832,32.9203795 L31.4687621,31.2613997 L31.4687621,32.9203795 L6.21469162,32.9203795 L5.54721149,31.2613997 L3.76732877,31.2613997 L3.10456608,32.9203795 L-5.68434189e-14,32.9203795 L-5.68434189e-14,28.2545021 Z" id="path3080" fill="#FFFFFF"></path>
                        <path d="M3.40220362,23.6936381 L0.0129607968,31.5737856 L2.21953274,31.5737856 L2.84489016,29.9958221 L6.48038765,29.9958221 L7.10250509,31.5737856 L9.35767997,31.5737856 L5.97167693,23.6936381 L3.40220362,23.6936381 Z M4.6561583,25.5275866 L5.76430512,28.2849974 L3.54477178,28.2849974 L4.6561583,25.5275866 L4.6561583,25.5275866 Z" id="path3046" fill="#016FD0"></path>
                        <polygon id="path3048" fill="#016FD0" points="9.5909735 31.5724618 9.5909735 23.6923075 12.726635 23.7039533 14.5504424 28.7845757 16.3305771 23.6923075 19.4411629 23.6923075 19.4411629 31.5724618 17.4711251 31.5724618 17.4711251 25.7660323 15.3828434 31.5724618 13.6551159 31.5724618 11.5610114 25.7660323 11.5610114 31.5724618"></polygon>
                        <polygon id="path3050" fill="#016FD0" points="20.7890834 31.5724618 20.7890834 23.6923075 27.2176283 23.6923075 27.2176283 25.454977 22.7798585 25.454977 22.7798585 26.8028947 27.113942 26.8028947 27.113942 28.4618746 22.7798585 28.4618746 22.7798585 29.8616371 27.2176283 29.8616371 27.2176283 31.5724618"></polygon>
                        <path d="M28.3581762,23.6936381 L28.3581762,31.5737856 L30.3282141,31.5737856 L30.3282141,28.7742605 L31.1577034,28.7742605 L33.5198049,31.5737856 L35.9272691,31.5737856 L33.3351137,28.6705776 C34.3989502,28.5808051 35.4963228,27.6677318 35.4963228,26.2501546 C35.4963228,24.5918938 34.1947751,23.6936381 32.7421584,23.6936381 L28.3581762,23.6936381 L28.3581762,23.6936381 Z M30.3282141,25.4563008 L32.5801486,25.4563008 C33.1203566,25.4563008 33.5133248,25.8788678 33.5133248,26.2857907 C33.5133248,26.8093123 33.0041685,27.1152806 32.6093107,27.1152806 L30.3282141,27.1152806 L30.3282141,25.4563008 L30.3282141,25.4563008 Z" id="path3052" fill="#016FD0"></path>
                        <polygon id="path3054" fill="#016FD0" points="38.3120519 31.5724618 36.3005395 31.5724618 36.3005395 23.6923075 38.3120519 23.6923075"></polygon>
                        <path d="M43.0816169,31.5724618 L42.647431,31.5724618 C40.5466434,31.5724618 39.2711491,29.9173795 39.2711491,27.6647885 C39.2711491,25.3565491 40.5323628,23.6923075 43.1853032,23.6923075 L45.3627135,23.6923075 L45.3627135,25.5586598 L43.105696,25.5586598 C42.0287488,25.5586598 41.2671081,26.3991101 41.2671081,27.6842294 C41.2671081,29.2103146 42.1380113,29.8512682 43.3926756,29.8512682 L43.9111062,29.8512682 L43.0816169,31.5724618 Z" id="path3056" fill="#016FD0"></path>
                        <path d="M47.368393,23.6936381 L43.9791509,31.5737856 L46.1857227,31.5737856 L46.8110798,29.9958221 L50.4465777,29.9958221 L51.0686944,31.5737856 L53.3238693,31.5737856 L49.9378669,23.6936381 L47.368393,23.6936381 Z M48.6223483,25.5275866 L49.7304945,28.2849974 L47.5109618,28.2849974 L48.6223483,25.5275866 Z" id="path3058" fill="#016FD0"></path>
                        <polygon id="path3060" fill="#016FD0" points="53.5539231 31.5724618 53.5539231 23.6923075 56.0585928 23.6923075 59.2566643 28.643328 59.2566643 23.6923075 61.2267022 23.6923075 61.2267022 31.5724618 58.8030374 31.5724618 55.523961 26.4918394 55.523961 31.5724618"></polygon>
                        <polygon id="path3062" fill="#016FD0" points="14.3605392 45.3627283 14.3605392 37.4825741 20.7890834 37.4825741 20.7890834 39.2452435 16.3513143 39.2452435 16.3513143 40.5931613 20.6853972 40.5931613 20.6853972 42.2521411 16.3513143 42.2521411 16.3513143 43.6519037 20.7890834 43.6519037 20.7890834 45.3627283"></polygon>
                        <polygon id="path3064" fill="#016FD0" points="45.8604068 45.3627283 45.8604068 37.4825741 52.2889517 37.4825741 52.2889517 39.2452435 47.851182 39.2452435 47.851182 40.5931613 52.1645282 40.5931613 52.1645282 42.2521411 47.851182 42.2521411 47.851182 43.6519037 52.2889517 43.6519037 52.2889517 45.3627283"></polygon>
                        <polygon id="path3066" fill="#016FD0" points="21.0385782 45.3627283 24.1686057 41.4712502 20.964054 37.4825741 23.4460424 37.4825741 25.3545163 39.9483571 27.269471 37.4825741 29.6542539 37.4825741 26.4918246 41.4226512 29.6276138 45.3627283 27.1460179 45.3627283 25.2929531 42.9358138 23.484925 45.3627283"></polygon>
                        <path d="M29.8616264,37.4839046 L29.8616264,45.3640522 L31.883507,45.3640522 L31.883507,42.8755824 L33.9572312,42.8755824 C35.7118951,42.8755824 37.0418953,41.9447011 37.0418953,40.1343802 C37.0418953,38.6347181 35.9987692,37.4839046 34.2132067,37.4839046 L29.8616264,37.4839046 L29.8616264,37.4839046 Z M31.883507,39.2660083 L34.0673975,39.2660083 C34.6342604,39.2660083 35.0394556,39.613439 35.0394556,40.1732621 C35.0394556,40.6991827 34.636306,41.0805158 34.0609174,41.0805158 L31.883507,41.0805158 L31.883507,39.2660083 Z" id="path3068" fill="#016FD0"></path>
                        <path d="M37.8973069,37.4825741 L37.8973069,45.3627283 L39.8673448,45.3627283 L39.8673448,42.5631965 L40.6968341,42.5631965 L43.0589356,45.3627283 L45.4663998,45.3627283 L42.8742444,42.4595136 C43.9380803,42.3697277 45.0354536,41.4566678 45.0354536,40.0390838 C45.0354536,38.3808298 43.7339058,37.4825741 42.2812891,37.4825741 L37.8973069,37.4825741 L37.8973069,37.4825741 Z M39.8673448,39.2452435 L42.1192793,39.2452435 C42.6594874,39.2452435 43.0524548,39.6678038 43.0524548,40.0747267 C43.0524548,40.598255 42.5432986,40.9042166 42.1484408,40.9042166 L39.8673448,40.9042166 L39.8673448,39.2452435 L39.8673448,39.2452435 Z" id="path3072" fill="#016FD0"></path>
                        <path d="M53.2013899,45.3627283 L53.2013899,43.6519037 L57.1440583,43.6519037 C57.7274316,43.6519037 57.9800283,43.336655 57.9800283,42.9909043 C57.9800283,42.6596352 57.7282279,42.3247238 57.1440583,42.3247238 L55.3624116,42.3247238 C53.8137398,42.3247238 52.9512473,41.3811754 52.9512473,39.9645658 C52.9512473,38.7010512 53.7410812,37.4825741 56.0423922,37.4825741 L59.8787818,37.4825741 L59.0492918,39.2556058 L55.7313335,39.2556058 C55.0970858,39.2556058 54.9018436,39.5884205 54.9018436,39.9062429 C54.9018436,40.2329155 55.1431158,40.5931613 55.6276473,40.5931613 L57.4939989,40.5931613 C59.2203864,40.5931613 59.9695071,41.5724266 59.9695071,42.8548176 C59.9695071,44.233513 59.1347407,45.3627283 57.400017,45.3627283 L53.2013899,45.3627283 Z" id="path3074" fill="#016FD0"></path>
                        <path d="M60.4318835,45.3627283 L60.4318835,43.6519037 L64.3745491,43.6519037 C64.9579258,43.6519037 65.2105238,43.336655 65.2105238,42.9909043 C65.2105238,42.6596352 64.9587187,42.3247238 64.3745491,42.3247238 L62.5929051,42.3247238 C61.0442334,42.3247238 60.1817402,41.3811754 60.1817402,39.9645658 C60.1817402,38.7010512 60.971574,37.4825741 63.2728851,37.4825741 L67.1092733,37.4825741 L66.2797834,39.2556058 L62.9618264,39.2556058 C62.3275793,39.2556058 62.1323371,39.5884205 62.1323371,39.9062429 C62.1323371,40.2329155 62.3736086,40.5931613 62.8581401,40.5931613 L64.7244931,40.5931613 C66.4508813,40.5931613 67.2,41.5724266 67.2,42.8548176 C67.2,44.233513 66.3652349,45.3627283 64.6305072,45.3627283 L60.4318835,45.3627283 Z" id="path3076" fill="#016FD0"></path>
                    </g>
                </g>
            </g>
        </g>
    </g>
</svg>