<?xml version="1.0" encoding="UTF-8"?>
<svg width="73px" height="69px" viewBox="0 0 73 69" version="1.1" xmlns="http://www.w3.org/2000/svg" xmlns:xlink="http://www.w3.org/1999/xlink">
    <!-- Generator: Sketch 60 (88103) - https://sketch.com -->
    <title>Icon</title>
    <desc>Created with Sketch.</desc>
    <defs>
        <path d="M54,11 C50.9433594,-8.5078125 33.4295023,2.08382122 24.7773437,13.984 C16.1251852,25.8841788 0.261187502,11 0.261187502,34.3346666 C0.261187502,57.6693331 19.3043172,36.2246094 36.6521586,55.3346666 C54,74.4447238 68.6757812,63.5 72.3378906,48 C76,32.5 57.0566406,30.5078125 54,11 Z" id="path-1"></path>
        <linearGradient x1="50%" y1="0%" x2="50%" y2="100%" id="linearGradient-3">
            <stop stop-color="#FAFCFF" offset="0%"></stop>
            <stop stop-color="#F2F8FF" offset="100%"></stop>
        </linearGradient>
        <linearGradient x1="50%" y1="-57.7237216%" x2="50%" y2="100%" id="linearGradient-4">
            <stop stop-color="#D4EBFF" offset="0%"></stop>
            <stop stop-color="#0777FF" offset="100%"></stop>
        </linearGradient>
        <linearGradient x1="50%" y1="-82.9938616%" x2="50%" y2="100%" id="linearGradient-5">
            <stop stop-color="#F2F8FF" offset="0%"></stop>
            <stop stop-color="#D4EBFF" offset="100%"></stop>
        </linearGradient>
        <linearGradient x1="50%" y1="0%" x2="50%" y2="100%" id="linearGradient-6">
            <stop stop-color="#12A1FF" offset="0%"></stop>
            <stop stop-color="#004DCA" offset="100%"></stop>
        </linearGradient>
    </defs>
    <g id="Website" stroke="none" stroke-width="1" fill="none" fill-rule="evenodd">
        <g id="Icon" transform="translate(0.000000, 2.000000)">
            <g id="bgicon" transform="translate(0.000000, 1.000000)">
                <mask id="mask-2" fill="white">
                    <use xlink:href="#path-1"></use>
                </mask>
                <use fill-opacity="0.2" fill="#FFFFFF" xlink:href="#path-1"></use>
                <g id="Color/Blue" mask="url(#mask-2)" fill="url(#linearGradient-3)">
                    <g transform="translate(0.000000, -12.000000)" id="Rectangle">
                        <rect x="0" y="0" width="76" height="78"></rect>
                    </g>
                </g>
            </g>
            <g id="icon/home/desktop" transform="translate(10.000000, 0.000000)">
                <g id="Group-7">
                    <polygon id="Stroke-1" fill="url(#linearGradient-4)" points="22 56 34 56 34 34 22 34"></polygon>
                    <polygon id="Stroke-3" fill="url(#linearGradient-5)" points="0 56 12 56 12 42 0 42"></polygon>
                    <polygon id="Stroke-4" fill="url(#linearGradient-6)" points="44 56 56 56 56 22 44 22"></polygon>
                    <polyline id="Stroke-5" stroke="#F5A622" stroke-width="4" stroke-linecap="round" stroke-linejoin="round" points="44 0 56 0 56 12"></polyline>
                    <path d="M56,0 C56,0 34.814,28.892 0,29.968" id="Stroke-6" stroke="#F5A622" stroke-width="4" stroke-linecap="round" stroke-linejoin="round"></path>
                </g>
            </g>
        </g>
    </g>
</svg>