<svg width="128" height="19" xmlns="http://www.w3.org/2000/svg"><g fill="none" fill-rule="evenodd"><path d="M39.773.131v12.45c0 3.914-2.443 6.173-6.357 6.173-2.6 0-4.701-1.077-6.33-2.942l2.154-3.126c1.313 1.366 2.784 2.049 3.861 2.049 1.235 0 1.97-.762 1.97-2.259V.131h4.702zM53.696 0c5.7 0 9.954 3.992 9.954 9.324 0 5.358-4.255 9.43-9.954 9.43-5.674 0-9.929-4.045-9.929-9.43C43.767 3.966 48.022 0 53.696 0zm.052 3.914c-2.837 0-5.2 2.337-5.2 5.437 0 3.099 2.39 5.49 5.2 5.49 2.837 0 5.096-2.391 5.096-5.49 0-3.1-2.26-5.437-5.096-5.437zM67.96.158h8.694c4.124 0 6.75 1.786 6.75 4.596 0 1.944-1.208 3.493-3.152 4.045 2.312.446 3.782 2.259 3.782 4.649 0 3.126-2.731 5.096-7.065 5.096h-9.01V.158zm4.649 3.572v3.782h3.782c1.366 0 2.233-.735 2.233-1.917S77.757 3.73 76.39 3.73H72.61zm0 7.144v4.071h3.782c1.734 0 2.81-.762 2.81-2.075 0-1.234-1.076-1.996-2.81-1.996H72.61zM97.3 0c5.7 0 9.954 3.992 9.954 9.324 0 5.358-4.255 9.43-9.954 9.43-5.674 0-9.929-4.045-9.929-9.43C87.372 3.966 91.627 0 97.301 0zm.052 3.914c-2.836 0-5.2 2.337-5.2 5.437 0 3.099 2.39 5.49 5.2 5.49 2.837 0 5.096-2.391 5.096-5.49 0-3.1-2.26-5.437-5.096-5.437zm24.02 5.016l6.594 9.614h-5.595l-3.966-5.858-3.966 5.858h-5.437l6.566-9.404-6.146-8.982h5.437l3.546 5.358 3.546-5.358h5.49l-6.068 8.772z" fill="#181B31"/><path d="M.698.82h12.558c.386 0 .698.412.698.92v9.653c0 .508-.312.919-.698.919H.698c-.386 0-.698-.411-.698-.92V1.74C0 1.232.312.82.698.82zM.436 13.955h13.083c.24 0 .435.183.435.41v.82c0 .227-.195.411-.435.411H.435c-.24 0-.435-.184-.435-.41v-.821c0-.227.195-.41.436-.41zm0 3.283h13.083c.24 0 .435.184.435.41v.821c0 .227-.195.41-.435.41H.435c-.24 0-.435-.183-.435-.41v-.82c0-.227.195-.411.436-.411z" fill="#0777FF"/></g></svg>
