<svg xmlns="http://www.w3.org/2000/svg" width="234" height="251" viewBox="0 0 234 251"><g fill="#12A1FF" fill-rule="evenodd"><path d="M142.62 3.002h1.717V0h-1.717v3.002zm0 13.728h1.717v-3.002h-1.717v3.002zm0 13.729h1.717v-3.003h-1.717v3.003zm0 13.729h1.717v-3.004h-1.717v3.004zm0 13.727h1.717v-3.003h-1.717v3.003zm0 13.73h1.717V68.64h-1.717v3.004zm0 13.727h1.717v-3.004h-1.717v3.004zm0 13.727h1.717v-3.002h-1.717v3.002zm0 13.73h1.717v-3.003h-1.717v3.002zm0 13.727h1.717v-3.003h-1.717v3.003zm0 13.729h1.717v-3.003h-1.717v3.003zm0 13.729h1.717v-3.004h-1.717v3.004zm0 13.727h1.717v-3.002h-1.717v3.002zm0 13.73h1.717v-3.005h-1.717v3.004zm0 13.727h1.717v-3.004h-1.717v3.004zm0 13.729h1.717v-3.004h-1.717v3.004zm0 13.727h1.717v-3.002h-1.717v3.002zm0 13.728h1.717v-3.003h-1.717v3.003zm0 13.729h1.717v-3.003h-1.717v3.003zM160.494 3.002h1.715V0h-1.715v3.002zm0 13.728h1.715v-3.002h-1.715v3.002zm0 13.729h1.715v-3.003h-1.715v3.003zm0 13.729h1.715v-3.004h-1.715v3.004zm0 13.727h1.715v-3.003h-1.715v3.003zm0 13.73h1.715V68.64h-1.715v3.004zm0 13.727h1.715v-3.004h-1.715v3.004zm0 13.727h1.715v-3.002h-1.715v3.002zm0 13.73h1.715v-3.003h-1.715v3.002zm0 13.727h1.715v-3.003h-1.715v3.003zm0 13.729h1.715v-3.003h-1.715v3.003zm0 13.729h1.715v-3.004h-1.715v3.004zm0 13.727h1.715v-3.002h-1.715v3.002zm0 13.73h1.715v-3.005h-1.715v3.004zm0 13.727h1.715v-3.004h-1.715v3.004zm0 13.729h1.715v-3.004h-1.715v3.004zm0 13.727h1.715v-3.002h-1.715v3.002zm0 13.728h1.715v-3.003h-1.715v3.003zm0 13.729h1.715v-3.003h-1.715v3.003zM178.367 3.002h1.717V0h-1.717v3.002zm0 13.728h1.717v-3.002h-1.717v3.002zm0 13.729h1.717v-3.003h-1.717v3.003zm0 13.729h1.717v-3.004h-1.717v3.004zm0 13.727h1.717v-3.003h-1.717v3.003zm0 13.73h1.717V68.64h-1.717v3.004zm0 13.727h1.717v-3.004h-1.717v3.004zm0 13.727h1.717v-3.002h-1.717v3.002zm0 13.73h1.717v-3.003h-1.717v3.002zm0 13.727h1.717v-3.003h-1.717v3.003zm0 13.729h1.717v-3.003h-1.717v3.003zm0 13.729h1.717v-3.004h-1.717v3.004zm0 13.727h1.717v-3.002h-1.717v3.002zm0 13.73h1.717v-3.005h-1.717v3.004zm0 13.727h1.717v-3.004h-1.717v3.004zm0 13.729h1.717v-3.004h-1.717v3.004zm0 13.727h1.717v-3.002h-1.717v3.002zm0 13.728h1.717v-3.003h-1.717v3.003zm0 13.729h1.717v-3.003h-1.717v3.003zM196.24 3.002h1.715V0h-1.715v3.002zm0 13.728h1.715v-3.002h-1.715v3.002zm0 13.729h1.715v-3.003h-1.715v3.003zm0 13.729h1.715v-3.004h-1.715v3.004zm0 13.727h1.715v-3.003h-1.715v3.003zm0 13.73h1.715V68.64h-1.715v3.004zm0 13.727h1.715v-3.004h-1.715v3.004zm0 13.727h1.715v-3.002h-1.715v3.002zm0 13.73h1.715v-3.003h-1.715v3.002zm0 13.727h1.715v-3.003h-1.715v3.003zm0 13.729h1.715v-3.003h-1.715v3.003zm0 13.729h1.715v-3.004h-1.715v3.004zm0 13.727h1.715v-3.002h-1.715v3.002zm0 13.73h1.715v-3.005h-1.715v3.004zm0 13.727h1.715v-3.004h-1.715v3.004zm0 13.729h1.715v-3.004h-1.715v3.004zm0 13.727h1.715v-3.002h-1.715v3.002zm0 13.728h1.715v-3.003h-1.715v3.003zm0 13.729h1.715v-3.003h-1.715v3.003zM214.114 3.002h1.715V0h-1.715v3.002zm0 13.728h1.715v-3.002h-1.715v3.002zm0 13.729h1.715v-3.003h-1.715v3.003zm0 13.729h1.715v-3.004h-1.715v3.004zm0 13.727h1.715v-3.003h-1.715v3.003zm0 13.73h1.715V68.64h-1.715v3.004zm0 13.727h1.715v-3.004h-1.715v3.004zm0 13.727h1.715v-3.002h-1.715v3.002zm0 13.73h1.715v-3.003h-1.715v3.002zm0 13.727h1.715v-3.003h-1.715v3.003zm0 13.729h1.715v-3.003h-1.715v3.003zm0 13.729h1.715v-3.004h-1.715v3.004zm0 13.727h1.715v-3.002h-1.715v3.002zm0 13.73h1.715v-3.005h-1.715v3.004zm0 13.727h1.715v-3.004h-1.715v3.004zm0 13.729h1.715v-3.004h-1.715v3.004zm0 13.727h1.715v-3.002h-1.715v3.002zm0 13.728h1.715v-3.003h-1.715v3.003zm0 13.729h1.715v-3.003h-1.715v3.003zM231.987 3.002h1.715V0h-1.715v3.002zm0 13.728h1.715v-3.002h-1.715v3.002zm0 13.729h1.715v-3.003h-1.715v3.003zm0 13.729h1.715v-3.004h-1.715v3.004zm0 13.727h1.715v-3.003h-1.715v3.003zm0 13.73h1.715V68.64h-1.715v3.004zm0 13.727h1.715v-3.004h-1.715v3.004zm0 13.727h1.715v-3.002h-1.715v3.002zm0 13.73h1.715v-3.003h-1.715v3.002zm0 13.727h1.715v-3.003h-1.715v3.003zm0 13.729h1.715v-3.003h-1.715v3.003zm0 13.729h1.715v-3.004h-1.715v3.004zm0 13.727h1.715v-3.002h-1.715v3.002zm0 13.73h1.715v-3.005h-1.715v3.004zm0 13.727h1.715v-3.004h-1.715v3.004zm0 13.729h1.715v-3.004h-1.715v3.004zm0 13.727h1.715v-3.002h-1.715v3.002zm0 13.728h1.715v-3.003h-1.715v3.003zm0 13.729h1.715v-3.003h-1.715v3.003zM124.747 3.002h1.717V0h-1.717v3.002zm0 13.728h1.717v-3.002h-1.717v3.002zm0 13.729h1.717v-3.003h-1.717v3.003zm0 13.729h1.717v-3.004h-1.717v3.004zm0 13.727h1.717v-3.003h-1.717v3.003zm0 13.73h1.717V68.64h-1.717v3.004zm0 13.727h1.717v-3.004h-1.717v3.004zm0 13.727h1.717v-3.002h-1.717v3.002zm0 13.73h1.717v-3.003h-1.717v3.002zm0 13.727h1.717v-3.003h-1.717v3.003zm0 13.729h1.717v-3.003h-1.717v3.003zm0 13.729h1.717v-3.004h-1.717v3.004zm0 13.727h1.717v-3.002h-1.717v3.002zm0 13.73h1.717v-3.005h-1.717v3.004zm0 13.727h1.717v-3.004h-1.717v3.004zm0 13.729h1.717v-3.004h-1.717v3.004zm0 13.727h1.717v-3.002h-1.717v3.002zm0 13.728h1.717v-3.003h-1.717v3.003zm0 13.729h1.717v-3.003h-1.717v3.003zM106.874 3.002h1.716V0h-1.716v3.002zm0 13.728h1.716v-3.002h-1.716v3.002zm0 13.729h1.716v-3.003h-1.716v3.003zm0 13.729h1.716v-3.004h-1.716v3.004zm0 13.727h1.716v-3.003h-1.716v3.003zm0 13.73h1.716V68.64h-1.716v3.004zm0 13.727h1.716v-3.004h-1.716v3.004zm0 13.727h1.716v-3.002h-1.716v3.002zm0 13.73h1.716v-3.003h-1.716v3.002zm0 13.727h1.716v-3.003h-1.716v3.003zm0 13.729h1.716v-3.003h-1.716v3.003zm0 13.729h1.716v-3.004h-1.716v3.004zm0 13.727h1.716v-3.002h-1.716v3.002zm0 13.73h1.716v-3.005h-1.716v3.004zm0 13.727h1.716v-3.004h-1.716v3.004zm0 13.729h1.716v-3.004h-1.716v3.004zm0 13.727h1.716v-3.002h-1.716v3.002zm0 13.728h1.716v-3.003h-1.716v3.003zm0 13.729h1.716v-3.003h-1.716v3.003zM89 3.002h1.717V0h-1.716v3.002zm0 13.728h1.717v-3.002h-1.716v3.002zm0 13.729h1.717v-3.003h-1.716v3.003zm0 13.729h1.717v-3.004h-1.716v3.004zm0 13.727h1.717v-3.003h-1.716v3.003zm0 13.73h1.717V68.64h-1.716v3.004zm0 13.727h1.717v-3.004h-1.716v3.004zm0 13.727h1.717v-3.002h-1.716v3.002zm0 13.73h1.717v-3.003h-1.716v3.002zm0 13.727h1.717v-3.003h-1.716v3.003zm0 13.729h1.717v-3.003h-1.716v3.003zm0 13.729h1.717v-3.004h-1.716v3.004zm0 13.727h1.717v-3.002h-1.716v3.002zm0 13.73h1.717v-3.005h-1.716v3.004zm0 13.727h1.717v-3.004h-1.716v3.004zm0 13.729h1.717v-3.004h-1.716v3.004zm0 13.727h1.717v-3.002h-1.716v3.002zm0 13.728h1.717v-3.003h-1.716v3.003zm0 13.729h1.717v-3.003h-1.716v3.003zM71.127 3.002h1.717V0h-1.717v3.002zm0 13.728h1.717v-3.002h-1.717v3.002zm0 13.729h1.717v-3.003h-1.717v3.003zm0 13.729h1.717v-3.004h-1.717v3.004zm0 13.727h1.717v-3.003h-1.717v3.003zm0 13.73h1.717V68.64h-1.717v3.004zm0 13.727h1.717v-3.004h-1.717v3.004zm0 13.727h1.717v-3.002h-1.717v3.002zm0 13.73h1.717v-3.003h-1.717v3.002zm0 13.727h1.717v-3.003h-1.717v3.003zm0 13.729h1.717v-3.003h-1.717v3.003zm0 13.729h1.717v-3.004h-1.717v3.004zm0 13.727h1.717v-3.002h-1.717v3.002zm0 13.73h1.717v-3.005h-1.717v3.004zm0 13.727h1.717v-3.004h-1.717v3.004zm0 13.729h1.717v-3.004h-1.717v3.004zm0 13.727h1.717v-3.002h-1.717v3.002zm0 13.728h1.717v-3.003h-1.717v3.003zm0 13.729h1.717v-3.003h-1.717v3.003zM53.254 3.002h1.717V0h-1.717v3.002zm0 13.728h1.717v-3.002h-1.717v3.002zm0 13.729h1.717v-3.003h-1.717v3.003zm0 13.729h1.717v-3.004h-1.717v3.004zm0 13.727h1.717v-3.003h-1.717v3.003zm0 13.73h1.717V68.64h-1.717v3.004zm0 13.727h1.717v-3.004h-1.717v3.004zm0 13.727h1.717v-3.002h-1.717v3.002zm0 13.73h1.717v-3.003h-1.717v3.002zm0 13.727h1.717v-3.003h-1.717v3.003zm0 13.729h1.717v-3.003h-1.717v3.003zm0 13.729h1.717v-3.004h-1.717v3.004zm0 13.727h1.717v-3.002h-1.717v3.002zm0 13.73h1.717v-3.005h-1.717v3.004zm0 13.727h1.717v-3.004h-1.717v3.004zm0 13.729h1.717v-3.004h-1.717v3.004zm0 13.727h1.717v-3.002h-1.717v3.002zm0 13.728h1.717v-3.003h-1.717v3.003zm0 13.729h1.717v-3.003h-1.717v3.003zM35.38 3.002h1.717V0h-1.716v3.002zm0 13.728h1.717v-3.002h-1.716v3.002zm0 13.729h1.717v-3.003h-1.716v3.003zm0 13.729h1.717v-3.004h-1.716v3.004zm0 13.727h1.717v-3.003h-1.716v3.003zm0 13.73h1.717V68.64h-1.716v3.004zm0 13.727h1.717v-3.004h-1.716v3.004zm0 13.727h1.717v-3.002h-1.716v3.002zm0 13.73h1.717v-3.003h-1.716v3.002zm0 13.727h1.717v-3.003h-1.716v3.003zm0 13.729h1.717v-3.003h-1.716v3.003zm0 13.729h1.717v-3.004h-1.716v3.004zm0 13.727h1.717v-3.002h-1.716v3.002zm0 13.73h1.717v-3.005h-1.716v3.004zm0 13.727h1.717v-3.004h-1.716v3.004zm0 13.729h1.717v-3.004h-1.716v3.004zm0 13.727h1.717v-3.002h-1.716v3.002zm0 13.728h1.717v-3.003h-1.716v3.003zm0 13.729h1.717v-3.003h-1.716v3.003zM17.509 3.002h1.715V0h-1.715v3.002zm0 13.728h1.715v-3.002h-1.715v3.002zm0 13.729h1.715v-3.003h-1.715v3.003zm0 13.729h1.715v-3.004h-1.715v3.004zm0 13.727h1.715v-3.003h-1.715v3.003zm0 13.73h1.715V68.64h-1.715v3.004zm0 13.727h1.715v-3.004h-1.715v3.004zm0 13.727h1.715v-3.002h-1.715v3.002zm0 13.73h1.715v-3.003h-1.715v3.002zm0 13.727h1.715v-3.003h-1.715v3.003zm0 13.729h1.715v-3.003h-1.715v3.003zm0 13.729h1.715v-3.004h-1.715v3.004zm0 13.727h1.715v-3.002h-1.715v3.002zm0 13.73h1.715v-3.005h-1.715v3.004zm0 13.727h1.715v-3.004h-1.715v3.004zm0 13.729h1.715v-3.004h-1.715v3.004zm0 13.727h1.715v-3.002h-1.715v3.002zm0 13.728h1.715v-3.003h-1.715v3.003zm0 13.729h1.715v-3.003h-1.715v3.003zM0 3.002h1.716V0H0v3.002zM0 16.73h1.716v-3.002H0v3.002zm0 13.729h1.716v-3.003H0v3.003zm0 13.729h1.716v-3.004H0v3.004zm0 13.727h1.716v-3.003H0v3.003zm0 13.73h1.716V68.64H0v3.004zm0 13.727h1.716v-3.004H0v3.004zm0 13.727h1.716v-3.002H0v3.002zm0 13.73h1.716v-3.003H0v3.002zm0 13.727h1.716v-3.003H0v3.003zm0 13.729h1.716v-3.003H0v3.003zm0 13.729h1.716v-3.004H0v3.004zm0 13.727h1.716v-3.002H0v3.002zm0 13.73h1.716v-3.005H0v3.004zm0 13.727h1.716v-3.004H0v3.004zm0 13.729h1.716v-3.004H0v3.004zm0 13.727h1.716v-3.002H0v3.002zm0 13.728h1.716v-3.003H0v3.003zm0 13.729h1.716v-3.003H0v3.003z"/></g></svg>