<svg width="128" height="128" viewBox="0 0 128 128" xmlns="http://www.w3.org/2000/svg" xmlns:xlink="http://www.w3.org/1999/xlink"><defs><path id="a" d="M0 0h128v128H0z"/></defs><g fill="none" fill-rule="evenodd"><mask id="b" fill="#fff"><use xlink:href="#a"/></mask><g mask="url(#b)" opacity=".6" stroke="#D0CFD4"><path d="M3.42.269l-129.547 127.7M16.643.269l-129.546 127.7M29.866.269l-129.546 127.7M43.089.269l-129.546 127.7M56.312.269l-129.546 127.7M69.536.269l-129.547 127.7M82.759.269l-129.546 127.7M95.982.269l-129.546 127.7M109.205.269l-129.546 127.7M122.429.269l-129.547 127.7M135.652.269L6.105 127.969M148.875.269l-129.546 127.7M162.098.269l-129.546 127.7M175.321.269l-129.546 127.7M188.543.269l-129.545 127.7M201.766.269L72.22 127.969M214.989.269l-129.546 127.7M228.213.269l-129.547 127.7M241.436.269l-129.546 127.7M254.659.269l-129.546 127.7"/></g></g></svg>